<svg id="_12-Insurance" data-name="12-Insurance" xmlns="http://www.w3.org/2000/svg" width="33.369" height="35.753" viewBox="0 0 33.369 35.753">
  <path id="Path_15173" data-name="Path 15173" d="M9.363,7.363a5.363,5.363,0,1,1,5.363,5.363A5.363,5.363,0,0,1,9.363,7.363Zm4.576,8.342h1.573l.715-1.788h-3Zm.077,1.192L12.4,24.453l2.33,2.33,2.33-2.33L15.435,16.9Zm7.264,3.575a9.81,9.81,0,0,0,4.159-1.007,5.964,5.964,0,0,0-5.947-5.548H17.515l-.977,2.437,1.752,8.164a.6.6,0,0,1-.161.548l-2.979,2.979a.6.6,0,0,1-.846,0l-2.979-2.979a.6.6,0,0,1-.161-.548l1.752-8.164-.977-2.437H9.959A5.961,5.961,0,0,0,4,19.876V29.41H7.575V21.664a.6.6,0,0,1,1.192,0V29.41H19.642a10.746,10.746,0,0,1-.149-1.788V22.26A1.793,1.793,0,0,1,21.28,20.472ZM37.369,22.26v5.363c0,7.371-8.077,10.074-8.158,10.1a.6.6,0,0,1-.368,0c-.081-.027-8.158-2.73-8.158-10.1V22.26a.6.6,0,0,1,.6-.6,12.172,12.172,0,0,0,7.346-2.825.6.6,0,0,1,.8,0,12.172,12.172,0,0,0,7.346,2.825.6.6,0,0,1,.6.6Zm-3.154,2.558a.6.6,0,0,0-.843,0l-5.537,5.537L24.681,27.2a.6.6,0,0,0-.843.843l3.575,3.575a.6.6,0,0,0,.843,0l5.959-5.959a.6.6,0,0,0,0-.843Z" transform="translate(-4 -2)" fill="#fff"/>
</svg>
