<svg xmlns="http://www.w3.org/2000/svg" width="94.372" height="90.795" viewBox="0 0 94.372 90.795">
  <g id="noun-global-spport-578470" transform="translate(-1.359 -2.519)">
    <path id="Path_15174" data-name="Path 15174" d="M93.469,49.2a7.545,7.545,0,0,0-3.406.484c-6.395,2.322-12.48,5.029-18.851,7.42a2.16,2.16,0,0,0-.882.491,7.967,7.967,0,0,1-6.292,2.773c-3.962.048-7.924.179-11.886.274-2.687.065-5.374.132-8.061.182a1.776,1.776,0,0,1-1.578-1.538c-.045-.795.5-1.066,1.187-1.133.274-.028.55-.048.825-.054q5.012-.127,10.024-.251c3.514-.088,7.031-.112,10.54-.283a4.344,4.344,0,1,0-.413-8.679A81.858,81.858,0,0,1,51.7,47.8c-4.809-.745-7.149-3.207-11.817-4.707-7.191-2.311-14.551-1.474-21.975-1.321-.014-.517-.025-1.033-.038-1.551-.042-1.632-.835-2.344-2.488-2.305q-6.507.148-13.012.313c-.266.006-.533.04-1.015.079.242,2.311.407,4.564.724,6.8a57.047,57.047,0,0,0,8.631,23.078,1.583,1.583,0,0,0,1.113.625c1.478.04,2.96-.029,4.439-.08a2.1,2.1,0,0,0,2.239-2.378c-.009-.423-.02-.847-.029-1.27l.02.006c3.337.949,6.658,1.954,9.992,2.916,6.206,1.792,12.376,3.726,18.637,5.3,5.192,1.306,10.428,1.46,15.365-1.258Q78.177,63.4,93.863,54.767A4.235,4.235,0,0,0,95.2,53.514,2.715,2.715,0,0,0,93.469,49.2Z" transform="translate(0 19.107)" fill="#fff"/>
    <path id="Path_15175" data-name="Path 15175" d="M75.468,18.136a27.025,27.025,0,0,0-2.065-3.7,26.752,26.752,0,0,0-46.569,3.7,26.4,26.4,0,0,0-2.348,9.05l-.026.345H24.4v3.437l.083.26a26.414,26.414,0,0,0,2.348,9.05,27.137,27.137,0,0,0,2.065,3.7,26.747,26.747,0,0,0,48.918-12.75l.031-.416c.031-.527.046-1.035.049-1.544v-.12c0-.51-.018-1.018-.049-1.521l-.031-.439A26.429,26.429,0,0,0,75.468,18.136ZM32.526,15.323a23.445,23.445,0,0,1,8.717-7.111l1.184-.559-.711,1.1a29.594,29.594,0,0,0-3.5,8.019l-.092.326-.334-.06c-1.732-.317-3.437-.7-5.063-1.13l-.534-.143Zm-4.552,11.8a23.075,23.075,0,0,1,2.216-7.964l.137-.283.3.088a64.673,64.673,0,0,0,6.355,1.487l.365.068-.065.365a48.532,48.532,0,0,0-.664,6.29l-.014.359H27.937Zm2.655,12.328-.3.088-.137-.283a23.075,23.075,0,0,1-2.216-7.964l-.038-.408h8.669l.014.359a48.508,48.508,0,0,0,.664,6.289l.065.365-.365.068A64.433,64.433,0,0,0,30.629,39.451ZM41.242,50.2a23.452,23.452,0,0,1-8.717-7.113l-.331-.442.534-.142c1.629-.434,3.332-.815,5.063-1.13l.334-.06.092.326a29.62,29.62,0,0,0,3.5,8.019l.711,1.1Zm8.172,1.936-.533-.249c-1.948-.915-3.766-2.936-5.26-5.847a28.666,28.666,0,0,1-1.908-4.821l-.126-.425.439-.054c2.276-.276,4.632-.448,7-.513l.383-.011Zm0-15.4-.365.009c-2.682.066-5.343.262-7.909.581l-.351.043-.063-.348a43.471,43.471,0,0,1-.622-5.754l-.015-.39h9.327V36.74Zm0-9.21H40.087l.015-.39a43.731,43.731,0,0,1,.622-5.754l.063-.348.351.043c2.565.319,5.226.514,7.909.581l.365.009v5.859Zm0-9.336-.383-.011c-2.371-.065-4.729-.237-7-.513l-.439-.054.126-.425a28.572,28.572,0,0,1,1.908-4.82c1.494-2.91,3.312-4.932,5.26-5.847l.533-.249ZM61.058,8.212a23.451,23.451,0,0,1,8.717,7.111l.331.442-.534.143c-1.629.434-3.332.815-5.063,1.13l-.334.06-.092-.326a29.546,29.546,0,0,0-3.5-8.019l-.711-1.1Zm-8.17-1.936.533.249c1.948.915,3.766,2.936,5.26,5.847a28.589,28.589,0,0,1,1.908,4.821l.126.425-.439.054c-2.276.276-4.632.448-7,.513l-.383.011Zm0,15.4.365-.009c2.682-.066,5.343-.262,7.909-.581l.351-.043.063.348a43.47,43.47,0,0,1,.622,5.754l.015.39H52.886V21.672Zm0,9.211h9.327l-.015.39a43.728,43.728,0,0,1-.622,5.754l-.063.348-.351-.043c-2.565-.319-5.226-.514-7.909-.581l-.365-.009V30.883Zm.533,21-.533.249V40.217l.383.011c2.371.065,4.729.237,7,.513l.439.054-.126.425a28.6,28.6,0,0,1-1.908,4.82C57.187,48.948,55.367,50.97,53.42,51.886Zm16.353-8.8A23.445,23.445,0,0,1,61.056,50.2l-1.184.559.711-1.1a29.5,29.5,0,0,0,3.5-8.019l.092-.326.334.06c1.728.316,3.431.694,5.063,1.13l.534.142Zm4.553-11.8a23.075,23.075,0,0,1-2.216,7.964l-.137.283-.3-.086a64.691,64.691,0,0,0-6.355-1.489l-.365-.068.065-.365a48.673,48.673,0,0,0,.664-6.289l.014-.359h8.669Zm-8.632-3.759-.014-.359a48.7,48.7,0,0,0-.664-6.29l-.065-.365.365-.068a64.674,64.674,0,0,0,6.355-1.487l.3-.088.137.283a23.075,23.075,0,0,1,2.216,7.964l.038.408H65.694Z" transform="translate(12.44)" fill="#fff"/>
  </g>
</svg>
