<svg xmlns="http://www.w3.org/2000/svg" width="89.667" height="87.83" viewBox="0 0 89.667 87.83">
  <g id="Group_93708" data-name="Group 93708" transform="translate(-27.241 -9.065)">
    <g id="Layer_2" data-name="Layer 2" transform="matrix(0.891, 0.454, -0.454, 0.891, 47.685, 36.327)">
      <path id="Path_15176" data-name="Path 15176" d="M38.277,13.51A6.807,6.807,0,1,0,32.2,9.659l-5.179,5.134a8.736,8.736,0,0,0-9.006,0L12.834,9.659a6.807,6.807,0,1,0-3.175,3.175l5.134,5.179a8.736,8.736,0,0,0,0,9.006L9.659,32.2a6.807,6.807,0,1,0,3.175,3.175l5.179-5.134a8.736,8.736,0,0,0,9.006,0l5.134,5.134a6.922,6.922,0,1,0,3.22-3.175l-5.134-5.179a8.736,8.736,0,0,0,0-9.006l5.134-5.179A6.755,6.755,0,0,0,38.277,13.51Z" fill="#fff"/>
    </g>
    <g id="noun-request-4820942" transform="matrix(0.966, 0.259, -0.259, 0.966, 80.975, 9.065)">
      <path id="Path_15177" data-name="Path 15177" d="M36.4,7.493A9.361,9.361,0,0,0,29.474.825a72.237,72.237,0,0,0-21.749,0A9.361,9.361,0,0,0,.8,7.493a39.191,39.191,0,0,0-.8,8.09,39.183,39.183,0,0,0,.8,8.089,9.361,9.361,0,0,0,6.93,6.668,52.426,52.426,0,0,0,5.316.609q.378.594.821,1.264c1.181,1.788,2.084,3.034,2.769,3.9a2.33,2.33,0,0,0,3.937,0c.684-.868,1.588-2.114,2.769-3.9.3-.448.568-.868.821-1.264a52.473,52.473,0,0,0,5.317-.609,9.361,9.361,0,0,0,6.93-6.668,39.183,39.183,0,0,0,.8-8.089,39.183,39.183,0,0,0-.8-8.089Zm-15.75,18.89a1.2,1.2,0,0,1-.922.922,6.884,6.884,0,0,1-1.133.087,6.739,6.739,0,0,1-1.133-.087,1.2,1.2,0,0,1-.922-.922,6.884,6.884,0,0,1-.087-1.133,6.739,6.739,0,0,1,.087-1.133,1.2,1.2,0,0,1,.922-.922,6.884,6.884,0,0,1,1.133-.087,6.739,6.739,0,0,1,1.133.087,1.2,1.2,0,0,1,.922.922,6.884,6.884,0,0,1,.087,1.133A6.739,6.739,0,0,1,20.654,26.383Zm4.423-11.9a8.628,8.628,0,0,1-2.645,2.278c-1.574.971-1.827,1.37-1.827,2.151v.309a2.008,2.008,0,0,1-4.016,0v-.716a4.067,4.067,0,0,1,.7-2.39,6.643,6.643,0,0,1,2.168-1.864c1.881-1.107,2.225-1.728,2.225-2.552,0-1.036-.883-1.706-2.248-1.706a2.747,2.747,0,0,0-2.9,2.022A2.124,2.124,0,0,1,14.5,13.5c-.052,0-.1,0-.157-.006a2.139,2.139,0,0,1-1.628-.943,2.117,2.117,0,0,1-.265-1.84,6.51,6.51,0,0,1,2.538-3.434A7.846,7.846,0,0,1,19.437,6a7.213,7.213,0,0,1,4.589,1.577,5.261,5.261,0,0,1,1.92,4.064,4.746,4.746,0,0,1-.87,2.837Z" fill="#fff"/>
    </g>
  </g>
</svg>
