<svg version="1.2" xmlns="http://www.w3.org/2000/svg" viewBox="0 0 64 64" width="64" height="64">
	<title>jobs-icon-svg</title>
	<style>
		.s0 { fill: #ffffff } 
	</style>
	<g id="Employee_searching">
		<path id="Layer" class="s0" d="m35.7 26.6c-1.9 0.8-3.7 2-5.2 3.5-1.4 1.5-2.6 3.2-3.5 5.1-0.8 1.9-1.3 4-1.4 6.1h-20.1q-0.7 0-1.3-0.3-0.7-0.3-1.2-0.8-0.5-0.5-0.8-1.1-0.2-0.7-0.2-1.4v-20.3l17.9 8.2q0 0 0.1 0.1 0.1 0 0.2 0 0.1 0.1 0.2 0.1 0 0 0.1 0v2.8c0 0.4 0.2 0.7 0.4 1 0.3 0.2 0.6 0.3 1 0.3 0.3 0 0.7-0.1 0.9-0.3 0.3-0.3 0.4-0.6 0.4-1v-2.8q0.1 0 0.2 0 0.1 0 0.2-0.1 0 0 0.1 0 0.1-0.1 0.2-0.1l17.9-8.2v7.8c-2.1 0-4.2 0.5-6.1 1.4z"/>
		<path id="Layer" fill-rule="evenodd" class="s0" d="m22.3 23.3q-0.2 0-0.4 0-0.3 0-0.5 0-0.2-0.1-0.4-0.2l-19-8.6v-2.2q0-0.7 0.2-1.3 0.3-0.7 0.8-1.2 0.5-0.5 1.2-0.7 0.6-0.3 1.3-0.3h7c0.5-2.1 1.8-3.9 3.4-5.2 1.7-1.3 3.8-2 5.9-2 2.2-0.1 4.2 0.6 5.9 1.9 1.8 1.3 3 3.1 3.6 5.2q0 0 0 0.1h6.9q0.7 0 1.4 0.3 0.6 0.2 1.1 0.7 0.5 0.5 0.8 1.2 0.3 0.6 0.3 1.3v2.2l-19 8.6q-0.2 0.1-0.5 0.2zm-2.2-18q-0.9 0.3-1.6 0.8-0.8 0.5-1.4 1.2-0.5 0.7-0.9 1.5h11.4q-0.4-0.8-1-1.5-0.6-0.7-1.3-1.2-0.8-0.5-1.6-0.8-0.9-0.2-1.8-0.2-0.9 0-1.8 0.2z"/>
		<path id="Layer" fill-rule="evenodd" class="s0" d="m62.4 59.5c0 0.8-0.4 1.6-0.9 2.2-0.6 0.5-1.4 0.9-2.2 0.9-0.8 0-1.6-0.4-2.2-0.9l-7.1-7.2c-6.3 3.8-14.4 2.2-18.9-3.6-4.4-5.9-3.8-14.1 1.6-19.2 5.3-5 13.6-5.3 19.2-0.5 5.6 4.7 6.7 12.9 2.6 19l7 7.1c0.5 0.6 0.9 1.3 0.9 2.2zm-17-10.4q1.4-0.6 2.4-1.7 1.1-1 1.6-2.4 0.6-1.3 0.6-2.8c0-3-1.8-5.7-4.6-6.9-2.7-1.1-5.9-0.5-8.1 1.7-2.1 2.1-2.7 5.3-1.6 8 1.2 2.8 3.9 4.6 6.9 4.6q1.5 0 2.8-0.5z"/>
	</g>
</svg>