<svg xmlns="http://www.w3.org/2000/svg" width="144.699" height="165.371" viewBox="0 0 144.699 165.371">
  <path id="LMS-Icon" d="M0,149.868a15.508,15.508,0,0,0,15.5,15.5H129.2a15.508,15.508,0,0,0,15.5-15.5V62.014H0ZM103.357,86.561a3.887,3.887,0,0,1,3.876-3.876h12.92a3.887,3.887,0,0,1,3.876,3.876v12.92a3.887,3.887,0,0,1-3.876,3.876h-12.92a3.887,3.887,0,0,1-3.876-3.876Zm0,41.343a3.887,3.887,0,0,1,3.876-3.876h12.92a3.887,3.887,0,0,1,3.876,3.876v12.92a3.887,3.887,0,0,1-3.876,3.876h-12.92a3.887,3.887,0,0,1-3.876-3.876ZM62.014,86.561a3.887,3.887,0,0,1,3.876-3.876H78.81a3.887,3.887,0,0,1,3.876,3.876v12.92a3.887,3.887,0,0,1-3.876,3.876H65.89a3.887,3.887,0,0,1-3.876-3.876Zm0,41.343a3.887,3.887,0,0,1,3.876-3.876H78.81a3.887,3.887,0,0,1,3.876,3.876v12.92A3.887,3.887,0,0,1,78.81,144.7H65.89a3.887,3.887,0,0,1-3.876-3.876ZM21.224,88.977l6.859,6.671,13.26-12.963,3.426,3.876L27.3,102.8,17.586,92.46ZM20.671,127.9a3.887,3.887,0,0,1,3.876-3.876h12.92a3.887,3.887,0,0,1,3.876,3.876v12.92a3.887,3.887,0,0,1-3.876,3.876H24.547a3.887,3.887,0,0,1-3.876-3.876ZM129.2,20.671h-15.5V5.168A5.183,5.183,0,0,0,108.525,0H98.189a5.183,5.183,0,0,0-5.168,5.168v15.5H51.678V5.168A5.183,5.183,0,0,0,46.511,0H36.175a5.183,5.183,0,0,0-5.168,5.168v15.5H15.5A15.508,15.508,0,0,0,0,36.175v15.5H144.7v-15.5A15.508,15.508,0,0,0,129.2,20.671Z" fill="#fff"/>
</svg>
