<svg xmlns="http://www.w3.org/2000/svg" width="71.848" height="71.848" viewBox="0 0 71.848 71.848">
  <path id="noun-icon-3037230" d="M38.424,2.5A35.924,35.924,0,1,0,74.348,38.424,35.957,35.957,0,0,0,38.424,2.5Zm8.622,17.168a4.765,4.765,0,1,1-4.765,4.765A4.745,4.745,0,0,1,47.046,19.668Zm9.6,31.613H20.2A2.679,2.679,0,0,1,18,47.046L31.466,28.29a2.687,2.687,0,0,1,4.387,0l7.79,10.891a.919.919,0,0,0,1.513,0l1.815-2.5a2.687,2.687,0,0,1,4.387,0l7.487,10.361A2.679,2.679,0,0,1,56.651,51.281Z" transform="translate(-2.5 -2.5)" fill="#fff"/>
</svg>
