<svg xmlns="http://www.w3.org/2000/svg" width="100.359" height="65.234" viewBox="0 0 100.359 65.234">
  <g id="noun-mail-1557081" transform="translate(-10 -976.362)">
    <path id="Path_15179" data-name="Path 15179" d="M17.527,976.362a7.461,7.461,0,0,0-4,1.176l42.966,37.517a5.212,5.212,0,0,0,7.292,0L106.831,977.5a7.505,7.505,0,0,0-4-1.137H17.527Zm-7.1,5.1A7.507,7.507,0,0,0,10,983.889v50.18a7.511,7.511,0,0,0,7.527,7.527h85.305a7.511,7.511,0,0,0,7.527-7.527v-50.18a7.5,7.5,0,0,0-.431-2.431l-42.849,37.4a10.519,10.519,0,0,1-13.878-.039l-42.77-37.364Z" fill="#fff"/>
  </g>
</svg>
