<svg xmlns="http://www.w3.org/2000/svg" width="82.596" height="82.596" viewBox="0 0 82.596 82.596">
  <path id="noun-sync-427570" d="M101.623,56.493a2.926,2.926,0,0,0-2.469-2.9L91.49,52.32a33.165,33.165,0,0,0-3.406-8.26l4.513-6.3a2.975,2.975,0,0,0-.341-3.832l-5.45-5.45a3.077,3.077,0,0,0-3.747-.256l-6.3,4.513a30.244,30.244,0,0,0-8.26-3.406l-1.277-7.664a2.926,2.926,0,0,0-2.9-2.469H56.663a2.926,2.926,0,0,0-2.9,2.469l-1.277,7.664a28.269,28.269,0,0,0-8.43,3.576l-6.3-4.428a2.975,2.975,0,0,0-3.832.341l-5.449,5.449a3.083,3.083,0,0,0-.341,3.832l4.513,6.386a34.54,34.54,0,0,0-3.406,8.26l-7.578,1.192a2.926,2.926,0,0,0-2.469,2.9V64.5a2.926,2.926,0,0,0,2.469,2.9l7.749,1.277a30.492,30.492,0,0,0,3.491,8.26l-4.428,6.3a2.975,2.975,0,0,0,.341,3.832l5.449,5.449a3.083,3.083,0,0,0,3.832.341l6.386-4.513a34.541,34.541,0,0,0,8.26,3.406l1.277,7.578a2.926,2.926,0,0,0,2.9,2.469h7.664a2.926,2.926,0,0,0,2.9-2.469l1.277-7.749a35.178,35.178,0,0,0,8.089-3.321l6.3,4.513a2.975,2.975,0,0,0,3.832-.341l5.449-5.449a2.975,2.975,0,0,0,.341-3.832l-4.513-6.3a30.243,30.243,0,0,0,3.406-8.26l7.664-1.277a2.926,2.926,0,0,0,2.469-2.9V60.58ZM60.581,80.846a20.436,20.436,0,0,1-.17-40.872V36.652c0-.341.426-.6.681-.341l8.856,6.046a.4.4,0,0,1,0,.681l-8.856,6.046a.446.446,0,0,1-.681-.341V45.423a15.118,15.118,0,1,0,10.644,4.428l4.6-3.15A20.437,20.437,0,0,1,60.581,80.845Z" transform="translate(-19.197 -19.196)" fill="#fff"/>
</svg>
