<svg id="noun-vacation-2548936" xmlns="http://www.w3.org/2000/svg" width="56.809" height="37.059" viewBox="0 0 56.809 37.059">
  <g id="Group_93706" data-name="Group 93706" transform="translate(0 2.651)">
    <circle id="Ellipse_225" data-name="Ellipse 225" cx="2.342" cy="2.342" r="2.342" transform="translate(20.124 3.32)" fill="#fff"/>
    <path id="Path_15162" data-name="Path 15162" d="M76.682,7.919a.658.658,0,0,0,.652-.652V6.052a.667.667,0,0,0-1.334,0V7.267A.665.665,0,0,0,76.682,7.919Z" transform="translate(-54.216 -5.4)" fill="#fff"/>
    <path id="Path_15163" data-name="Path 15163" d="M65.067,12.233a.7.7,0,0,0,.474.207.59.59,0,0,0,.474-.207.7.7,0,0,0,.207-.474.59.59,0,0,0-.207-.474l-.86-.86h0a.662.662,0,0,0-.949,0A.7.7,0,0,0,64,10.9a.59.59,0,0,0,.207.474Z" transform="translate(-45.773 -8.795)" fill="#fff"/>
    <path id="Path_15164" data-name="Path 15164" d="M59.752,23.7h1.215a.652.652,0,0,0,0-1.3H59.752a.652.652,0,1,0,0,1.3Z" transform="translate(-42.326 -17.361)" fill="#fff"/>
    <path id="Path_15165" data-name="Path 15165" d="M65.067,31.625l-.86.86a.7.7,0,0,0-.207.474.59.59,0,0,0,.207.474.7.7,0,0,0,.474.207.59.59,0,0,0,.474-.207l.86-.86a.7.7,0,0,0,.207-.474.59.59,0,0,0-.207-.474A.662.662,0,0,0,65.067,31.625Z" transform="translate(-45.773 -23.711)" fill="#fff"/>
    <path id="Path_15166" data-name="Path 15166" d="M76.752,35.2a.658.658,0,0,0-.652.652v1.215a.652.652,0,1,0,1.3,0V35.852A.658.658,0,0,0,76.752,35.2Z" transform="translate(-54.287 -26.367)" fill="#fff"/>
    <path id="Path_15167" data-name="Path 15167" d="M86.256,31.625a.662.662,0,0,0-.949,0,.7.7,0,0,0-.207.474.59.59,0,0,0,.207.474l.86.86a.7.7,0,0,0,.474.207.59.59,0,0,0,.474-.207.7.7,0,0,0,.207-.474.59.59,0,0,0-.207-.474Z" transform="translate(-60.619 -23.711)" fill="#fff"/>
    <path id="Path_15168" data-name="Path 15168" d="M90.867,22.3H89.652a.652.652,0,0,0,0,1.3h1.215a.652.652,0,1,0,0-1.3Z" transform="translate(-63.363 -17.291)" fill="#fff"/>
    <path id="Path_15169" data-name="Path 15169" d="M85.782,12.441a.59.59,0,0,0,.474-.207l.86-.86a.7.7,0,0,0,.207-.474.59.59,0,0,0-.207-.474.662.662,0,0,0-.949,0l-.86.86a.7.7,0,0,0-.207.474.59.59,0,0,0,.207.474A.7.7,0,0,0,85.782,12.441Z" transform="translate(-60.619 -8.795)" fill="#fff"/>
    <path id="Path_15170" data-name="Path 15170" d="M36.51,66.179,34.643,63.6l.3,2.253a.351.351,0,0,1-.03.3l-1.838,4.8a1.365,1.365,0,0,0,.563,1.69,1.67,1.67,0,0,0,.356.119,1.336,1.336,0,0,0,1.482-.771l1.334-3.172-.237-2.49A.313.313,0,0,0,36.51,66.179Z" transform="translate(-23.945 -46.349)" fill="#fff"/>
    <path id="Path_15171" data-name="Path 15171" d="M21.239,35.423,18.9,35.1s-1.482-2.164-1.69-2.431a4.052,4.052,0,0,0-.83-.978,2.191,2.191,0,0,0-1.6-.356,2.017,2.017,0,0,0-.8.385c-.178.119-2.934,2.1-2.934,2.1l-.593.445a1.114,1.114,0,0,0-.415.771l-.267,2.934a.914.914,0,0,0,.03.3,1.039,1.039,0,0,0,.267.5L9.027,40.936l-2.1-1.008a1.058,1.058,0,0,0-1.423.5l-2.875,5.9A1.039,1.039,0,0,0,3.1,47.753L5.44,48.88a1.215,1.215,0,0,0,2.431,0,.7.7,0,0,0-.059-.237l2.786-5.78a1.058,1.058,0,0,0-.5-1.423l-.326-.148,1.037-2.164h.059a1.1,1.1,0,0,0,1.067-1.067l.207-2.371.889-.622L12.7,38.327a1.432,1.432,0,0,0,.237.919L15.7,42.981a1.1,1.1,0,0,1,.207.593l.5,5.128a1.376,1.376,0,0,0,1.126,1.363.846.846,0,0,0,.385,0,1.274,1.274,0,0,0,1.126-1.245l-.3-6.106a1.093,1.093,0,0,0-.148-.5s-1.66-3.172-1.778-3.349a1.387,1.387,0,0,1-.059-.474c0-.148.178-2.282.178-2.282l.445.622a1.087,1.087,0,0,0,.741.445l2.9.385h.3a1.079,1.079,0,0,0,.919-1.037A1.1,1.1,0,0,0,21.239,35.423ZM5.915,44.285l-1.186,2.49a.371.371,0,0,1-.5.148.391.391,0,0,1-.178-.5l1.186-2.46a.366.366,0,0,1,.5-.178A.35.35,0,0,1,5.915,44.285Zm.741,5.069a.474.474,0,1,1,.474-.474A.509.509,0,0,1,6.656,49.354Z" transform="translate(-2.508 -23.626)" fill="#fff"/>
    <circle id="Ellipse_226" data-name="Ellipse 226" cx="2.312" cy="2.312" r="2.312" transform="translate(10.203 2.886) rotate(-8.453)" fill="#fff"/>
  </g>
  <g id="noun-sick-4525639" transform="translate(34.574 9.175)">
    <path id="Path_15172" data-name="Path 15172" d="M16.782,19.223c-.052.025-.105.049-.16.069l-2.167.812a5.937,5.937,0,0,1-4.176,0l-2.167-.812c-.055-.021-.109-.044-.16-.069L5.588,21.177a11.109,11.109,0,0,0,13.558,0Zm6.648-7.961-5.652,2.855a1.794,1.794,0,0,1,.019.26V17.6a1.823,1.823,0,0,1-.048.413l2.57,2.124a11.08,11.08,0,0,0,3.166-7.767q0-.56-.055-1.106Zm-22.125,0q-.054.546-.055,1.106a11.08,11.08,0,0,0,3.166,7.767l2.57-2.124a1.823,1.823,0,0,1-.048-.413v-3.22a1.794,1.794,0,0,1,.019-.26L1.3,11.262Zm.277-1.6,6.245,3.154a1.907,1.907,0,0,1,.285-.137l2.167-.812a5.937,5.937,0,0,1,4.176,0l2.167.812a1.907,1.907,0,0,1,.285.137l6.245-3.154a11.12,11.12,0,0,0-21.571,0Zm7.58-1.253a1.162,1.162,0,0,1-1.862,0,.776.776,0,0,0-1.241.932,2.715,2.715,0,0,0,4.344,0,.776.776,0,0,0-1.241-.932Zm8.273,0a1.162,1.162,0,0,1-1.862,0,.776.776,0,0,0-1.241.932,2.715,2.715,0,0,0,4.344,0,.776.776,0,0,0-1.241-.932Z" transform="translate(-1.25 -1.25)" fill="#fff" fill-rule="evenodd"/>
  </g>
  <rect id="Rectangle_2084" data-name="Rectangle 2084" width="1.735" height="39.523" transform="matrix(0.921, 0.391, -0.391, 0.921, 36.4, 0)" fill="#fff"/>
</svg>
