<svg xmlns="http://www.w3.org/2000/svg" width="94.114" height="94.154" viewBox="0 0 94.114 94.154"><defs><style>.a{fill:#fff;}</style></defs><g transform="translate(0 0)"><g transform="translate(0 0)"><path class="a" d="M40.458,40.267A19.068,19.068,0,1,0,21.39,21.2,19.068,19.068,0,0,0,40.458,40.267Zm0-36.048A17.061,17.061,0,1,1,23.4,21.28,17.061,17.061,0,0,1,40.458,4.22Z" transform="translate(6.619 -2.132)"/><path class="a" d="M40.458,40.648A19.068,19.068,0,1,0,59.525,59.716,19.068,19.068,0,0,0,40.458,40.648Zm0,36.048A17.061,17.061,0,1,1,57.518,59.635,17.061,17.061,0,0,1,40.458,76.7Z" transform="translate(6.619 15.371)"/><path class="a" d="M59.688,21.39A19.068,19.068,0,1,0,78.756,40.458,19.068,19.068,0,0,0,59.688,21.39Zm0,36.048a7.074,7.074,0,1,1,0,.08Z" transform="translate(15.358 6.619)"/><path class="a" d="M40.267,40.458A19.068,19.068,0,1,0,21.2,59.525,19.068,19.068,0,0,0,40.267,40.458Zm-36.048,0A17.061,17.061,0,1,1,21.28,57.518,17.061,17.061,0,0,1,4.22,40.458Z" transform="translate(-2.132 6.619)"/><path class="a" d="M17.855,45.719V44.9h1a3.011,3.011,0,0,0,3.011-3.011V38.875a2.007,2.007,0,0,0-2.007-2.007H13.841V33.857a1,1,0,0,1,1-1h4.014a1,1,0,0,1,1,1,1,1,0,0,0,2.007,0,3.011,3.011,0,0,0-3.011-3.011h-1V29.1a1,1,0,1,0-2.007,0v1.746h-1a3.011,3.011,0,0,0-3.011,3.011v3.011a2.007,2.007,0,0,0,2.007,2.007h6.021v3.011a1,1,0,0,1-1,1H15.045a1,1,0,0,1-1-1,1,1,0,1,0-2.007,0A3.011,3.011,0,0,0,15.045,44.9h.823v.823a1,1,0,0,0,2.007,0Z" transform="translate(2.277 9.667)"/><path class="a" d="M35.027,39.2A15.053,15.053,0,1,0,19.973,54.257,15.053,15.053,0,0,0,35.027,39.2Zm-28.1,0A13.046,13.046,0,1,1,19.973,52.25,13.046,13.046,0,0,1,6.927,39.2Z" transform="translate(-0.865 7.874)"/><path class="a" d="M9.46,26.826a1.074,1.074,0,0,0,.251,0,1,1,0,0,0,.873-.512A40.765,40.765,0,0,1,26.35,10.579a1.007,1.007,0,0,0-1-1.746A42.752,42.752,0,0,0,10.694,22.3V17.022a1,1,0,1,0-2.007,0v8.831a1,1,0,0,0,.773.973Z" transform="translate(0.847 0.852)"/><path class="a" d="M26.345,64.093A40.765,40.765,0,0,1,10.579,48.327a1.007,1.007,0,1,0-1.746,1A42.752,42.752,0,0,0,22.3,63.982H17.022a1,1,0,0,0,0,2.007h8.831a1,1,0,0,0,.492-1.877Z" transform="translate(0.852 18.631)"/><path class="a" d="M65.218,47.847a1,1,0,0,0-1.124.482A40.765,40.765,0,0,1,48.328,64.1a1,1,0,1,0,.983,1.746A42.752,42.752,0,0,0,63.964,52.374v5.279a1,1,0,0,0,2.007,0V48.821A1,1,0,0,0,65.218,47.847Z" transform="translate(18.629 18.628)"/><path class="a" d="M48.328,10.578A40.765,40.765,0,0,1,64.094,26.344a1,1,0,0,0,1.746-.983A42.752,42.752,0,0,0,52.372,10.708h5.279a1,1,0,1,0,0-2.007H48.82a1,1,0,0,0-.492,1.877Z" transform="translate(18.63 0.853)"/><path class="a" d="M32.088,25.57h1.144v1.1a1,1,0,1,0,2.007,0v-1.1h1v1.1a1,1,0,0,0,2.007,0V25.509a4.566,4.566,0,0,0,2.519-7.858,3.683,3.683,0,0,0-2.208-6.583H38.28V9.773a1,1,0,1,0-2.007,0v1.295h-1V9.773a1,1,0,0,0-2.007,0v1.295H32.088a1,1,0,0,0-1,1V24.566A1,1,0,0,0,32.088,25.57Zm1-12.514h5.469a1.676,1.676,0,1,1,0,3.342H33.092Zm0,5.349h4.566a2.579,2.579,0,0,1,0,5.158H33.092Z" transform="translate(11.025 0.884)"/><path class="a" d="M39.2,35.027A15.053,15.053,0,1,0,24.15,19.973,15.053,15.053,0,0,0,39.2,35.027Zm0-28.1A13.046,13.046,0,1,1,26.157,19.973,13.046,13.046,0,0,1,39.2,6.927Z" transform="translate(7.874 -0.865)"/><path class="a" d="M41.239,49.086l-4.727,4.7-4.727-4.7a1,1,0,1,0-1.415,1.425l5.138,5.108v.161h-2.86a1,1,0,0,0,0,2.007h2.86v2.268h-2.86a1,1,0,0,0,0,2.007h2.86v1.847a1,1,0,1,0,2.007,0V62.062h2.86a1,1,0,1,0,0-2.007h-2.86V57.787h2.86a1,1,0,1,0,0-2.007h-2.86v-.161l5.138-5.138a.994.994,0,1,0-1.415-1.395Z" transform="translate(10.565 19.066)"/><path class="a" d="M39.2,43.38A15.053,15.053,0,1,0,54.257,58.434,15.053,15.053,0,0,0,39.2,43.38Zm0,28.1A13.046,13.046,0,1,1,52.25,58.434,13.046,13.046,0,0,1,39.2,71.48Z" transform="translate(7.874 16.613)"/><path class="a" d="M56.871,30.649h1.5a1.576,1.576,0,0,1,1.576,1.576,1,1,0,1,0,2.007,0,3.593,3.593,0,0,0-3.583-3.583h-1.5a3.593,3.593,0,0,0-3.583,3.583v2.007h-2.86a1,1,0,0,0,0,2.007h2.86v1.826h-2.86a1,1,0,0,0,0,2.007h2.86V42.08a3.593,3.593,0,0,0,3.583,3.583h1.5a3.593,3.593,0,0,0,3.583-3.583,1,1,0,1,0-2.007,0,1.576,1.576,0,0,1-1.576,1.576h-1.5A1.586,1.586,0,0,1,55.3,42.08V40.072h2.86a1,1,0,0,0,0-2.007H55.3V36.249h2.86a1,1,0,1,0,0-2.007H55.3V32.235a1.586,1.586,0,0,1,1.576-1.586Z" transform="translate(19.359 9.915)"/><path class="a" d="M58.434,24.15A15.053,15.053,0,1,0,73.487,39.2,15.053,15.053,0,0,0,58.434,24.15Zm0,28.1A13.046,13.046,0,1,1,71.48,39.2,13.046,13.046,0,0,1,58.434,52.25Z" transform="translate(16.613 7.874)"/></g></g></svg>