<svg xmlns="http://www.w3.org/2000/svg" xmlns:xlink="http://www.w3.org/1999/xlink" width="60.316" height="49.236" viewBox="0 0 60.316 49.236"><defs><style>.a{fill:url(#a);}</style><linearGradient id="a" x1="0.5" x2="0.5" y2="1" gradientUnits="objectBoundingBox"><stop offset="0" stop-color="#624d65"/><stop offset="1" stop-color="#8483a3"/></linearGradient></defs><g transform="translate(0 -36.648)"><g transform="translate(0 36.648)"><g transform="translate(0 0)"><path class="a" d="M74.333,213.48a7.849,7.849,0,0,1-7.743,0L49.064,202.731s-1.582-.97-1.582,1.227v10.734c0,5.654,10.288,11.75,22.979,11.75s22.979-6.1,22.979-11.75V203.353c0-1.763-1.125-.9-1.125-.9Z" transform="translate(-40.304 -177.206)"/><path class="a" d="M59.306,53.622a1.621,1.621,0,0,0,0-3l-26.7-13.351a5.149,5.149,0,0,0-4.9,0L1.01,50.619a1.621,1.621,0,0,0,0,3L27.71,70a5.149,5.149,0,0,0,4.9,0" transform="translate(0 -36.648)"/><path class="a" d="M360.228,204.392V186.307s.013-.857-.5-.574a14.769,14.769,0,0,0-1.759,1.09,1.518,1.518,0,0,0-.315,1.146v16.422a.482.482,0,0,1-.3.4,3.124,3.124,0,1,0,3.151-.006A.466.466,0,0,1,360.228,204.392Z" transform="translate(-302.026 -163.146)"/></g></g></g></svg>