<svg xmlns="http://www.w3.org/2000/svg" xmlns:xlink="http://www.w3.org/1999/xlink" width="64.795" height="43.627" viewBox="0 0 64.795 43.627"><defs><style>.a{fill:url(#a);}</style><linearGradient id="a" x1="0.5" x2="0.5" y2="1" gradientUnits="objectBoundingBox"><stop offset="0" stop-color="#634e67"/><stop offset="1" stop-color="#817f9e"/></linearGradient></defs><g transform="translate(0 -75.473)"><g transform="translate(26.945 108.246)"><g transform="translate(0 0)"><path class="a" d="M198.555,309.608v-.252c-1.29-.014-2.524-.084-3.716-.182a16.933,16.933,0,0,1-2.693,4.614,43.806,43.806,0,0,0,6.493.575Z" transform="translate(-192.146 -309.173)"/></g></g><g transform="translate(0 88.248)"><g transform="translate(0)"><path class="a" d="M27.675,177.722a14.079,14.079,0,0,0-9.564-10.532,14.283,14.283,0,0,0-4.137-.617,13.973,13.973,0,1,0,9.41,24.3,13.9,13.9,0,0,0,4.572-10.335A14.666,14.666,0,0,0,27.675,177.722Zm-13.7.94a5.293,5.293,0,0,1,1.43,10.391v1.234a1.4,1.4,0,1,1-2.8,0v-1.22a5.327,5.327,0,0,1-3.927-5.119,1.4,1.4,0,1,1,2.8,0,2.489,2.489,0,1,0,2.482-2.5,5.291,5.291,0,0,1-1.346-10.405v-.6a1.4,1.4,0,1,1,2.8,0v.631a5.3,5.3,0,0,1,3.856,5.1,1.4,1.4,0,1,1-2.8,0,2.5,2.5,0,1,0-2.5,2.482Z" transform="translate(0 -166.573)"/></g></g><g transform="translate(30.437 100.547)"><g transform="translate(0 0)"><path class="a" d="M219.921,259.336l-.084-4.964c-.869-.014-1.725-.042-2.538-.1.042.561.07,1.108.07,1.655a17.238,17.238,0,0,1-.323,3.282C217.972,259.293,218.939,259.336,219.921,259.336Z" transform="translate(-217.046 -254.273)"/></g></g><g transform="translate(19.864 82.401)"><g transform="translate(0 0)"><path class="a" d="M170.45,124.873a16.818,16.818,0,0,1-3.043,1.22,46.332,46.332,0,0,1-22.732.112,15.537,15.537,0,0,1-3.029-1.164l.1,3.955a16.18,16.18,0,0,1,4.389,2.482c.042.014.07.014.112.028a40.122,40.122,0,0,0,9.55,1.052,39.7,39.7,0,0,0,10.8-1.36c3.043-.926,3.716-1.893,3.716-2.075a.806.806,0,0,1,.14-.575Z" transform="translate(-141.646 -124.873)"/></g></g><g transform="translate(19.723 75.473)"><g transform="translate(0 0)"><path class="a" d="M165.72,76.833a39.153,39.153,0,0,0-10.8-1.36,37.881,37.881,0,0,0-10.658,1.36c-2.959.9-3.6,1.781-3.618,2.061,0,0,.014,0,.014.028.07.309.912,1.262,3.927,2.132a38.5,38.5,0,0,0,10.335,1.262,39.626,39.626,0,0,0,10.784-1.346c3.043-.912,3.73-1.879,3.73-2.075S168.763,77.759,165.72,76.833Z" transform="translate(-140.646 -75.473)"/></g></g><g transform="translate(36.215 111.429)"><path class="a" d="M286.8,336.08v-4.207a17.976,17.976,0,0,1-2.945,1.192,41.471,41.471,0,0,1-11.583,1.472,43.159,43.159,0,0,1-10.532-1.206,18.274,18.274,0,0,1-3.492-1.276l.07,4.067v.028c0,.21.617,1.15,3.576,2.061a38.161,38.161,0,0,0,10.644,1.332,37.44,37.44,0,0,0,10.672-1.374c2.959-.926,3.6-1.893,3.6-2.09H286.8Z" transform="translate(-258.246 -331.873)"/></g><g transform="translate(27.633 90.226)"><g transform="translate(0 0)"><path class="a" d="M218.053,180.673a17.711,17.711,0,0,1-3.029,1.206,41.857,41.857,0,0,1-11.626,1.472,50.507,50.507,0,0,1-6.353-.407,16.625,16.625,0,0,1,2.51,5.217c1.206.084,2.51.14,3.856.14h.14c2.3-2.524,8.484-3.786,14.5-3.955v-3.674Z" transform="translate(-197.046 -180.673)"/></g></g><g transform="translate(36.089 103.674)"><path class="a" d="M282.981,277.765a41.975,41.975,0,0,1-11.457,1.43,41.449,41.449,0,0,1-11.121-1.36,17.208,17.208,0,0,1-3.057-1.178l.056,3.225.014,1.178c1.094,1.36,6.325,3.113,14.094,3.113a38.8,38.8,0,0,0,10.756-1.346c3.029-.926,3.688-1.879,3.688-2.075,0-.154.084-.323.084-.463h.014v-3.716A16.01,16.01,0,0,1,282.981,277.765Z" transform="translate(-257.346 -276.573)"/></g><g transform="translate(35.991 96.733)"><g transform="translate(0 0)"><path class="a" d="M281.72,228.405a39.3,39.3,0,0,0-10.8-1.332h-.238a38.165,38.165,0,0,0-10,1.192c-2.9.813-3.9,1.739-4.025,2.118a.106.106,0,0,0-.014.056l.028.056c.084.294.912,1.248,3.927,2.132a43.583,43.583,0,0,0,20.993-.07c3.113-.926,3.814-1.893,3.828-2.1v-.014C285.408,230.228,284.707,229.3,281.72,228.405Z" transform="translate(-256.646 -227.073)"/></g></g></g></svg>