<svg xmlns="http://www.w3.org/2000/svg" xmlns:xlink="http://www.w3.org/1999/xlink" width="42.629" height="53.251" viewBox="0 0 42.629 53.251"><defs><style>.a{fill:url(#a);}</style><linearGradient id="a" x1="0.5" x2="0.5" y2="1" gradientUnits="objectBoundingBox"><stop offset="0" stop-color="#624d65"/><stop offset="1" stop-color="#8483a3"/></linearGradient></defs><g transform="translate(-5.311)"><path class="a" d="M12.61,21.022H40.64a1.167,1.167,0,1,0,0-2.335h-.06A14,14,0,0,0,28.961,6.05V4.38H26.917V.292a.292.292,0,1,0-.584,0V4.379H24.29v1.67A14.006,14.006,0,0,0,12.669,18.686H12.61a1.168,1.168,0,0,0,0,2.336Z"/><path class="a" d="M46.48,50.332H45.02V36.9h1.46a1.46,1.46,0,1,0,0-2.92H6.771a1.46,1.46,0,1,0,0,2.92h1.46V50.332H6.771a1.459,1.459,0,1,0,0,2.919H46.48a1.459,1.459,0,1,0,0-2.919Zm-5.548,0H38.48V36.9h2.452ZM25.4,36.9h2.452V50.332H25.4ZM21.312,50.332H18.859V36.9h2.453ZM31.94,36.9h2.452V50.332H31.94Zm-19.622,0H14.77V50.332H12.318Z"/><path class="a" d="M10.859,25.986H12.33c0,.022-.012.042-.012.058v6.3h2.92v-6.3c0-.021-.011-.042-.011-.058h1.387c0,.022-.011.042-.011.058v6.3h2.919v-6.3c0-.021-.011-.042-.011-.058H20.9c0,.022-.011.042-.011.058v6.3h2.92v-6.3c0-.021-.012-.042-.012-.058h1.387c0,.022-.012.042-.012.058v6.3h2.92v-6.3c0-.021-.012-.042-.012-.058h1.387c0,.022-.012.042-.012.058v6.3h2.92v-6.3c0-.021-.011-.042-.011-.058h1.387c0,.022-.012.042-.012.058v6.3h2.92v-6.3c0-.021-.012-.042-.012-.058h1.387c0,.022-.011.042-.011.058v6.3h2.92v-6.3c0-.021-.012-.042-.012-.058H42.4a1.46,1.46,0,1,0,0-2.92H10.868a1.46,1.46,0,0,0-.009,2.92Z"/></g></svg>