<svg xmlns="http://www.w3.org/2000/svg" xmlns:xlink="http://www.w3.org/1999/xlink" width="60.865" height="55.919" viewBox="0 0 60.865 55.919"><defs><style>.a{fill:url(#a);}</style><linearGradient id="a" x1="0.5" x2="0.5" y2="1" gradientUnits="objectBoundingBox"><stop offset="0" stop-color="#624d65"/><stop offset="1" stop-color="#8483a3"/></linearGradient></defs><g transform="translate(0 -13.407)"><path class="a" d="M21.327,62.293q1.646,1.446,3.4,2.989l.024.021,3.877,3.349a2.768,2.768,0,0,0,3.618,0L36.119,65.3l.024-.021C43.819,58.494,49.574,53.3,53.737,48.229c4.863-5.92,7.128-11.272,7.128-16.844A17.786,17.786,0,0,0,42.888,13.407,19.308,19.308,0,0,0,30.434,18.07a19.311,19.311,0,0,0-12.456-4.663A17.786,17.786,0,0,0,0,31.385C0,43.57,8.484,51.019,21.327,62.293ZM19.364,35.832h7.379V28.453h7.379v7.379H41.5v7.379H34.122V50.59H26.743V43.211H19.364V35.832Z"/></g></svg>