<svg xmlns="http://www.w3.org/2000/svg" width="91.275" height="93.882" viewBox="0 0 91.275 93.882"><defs><style>.a{fill:#f8730d;}</style></defs><g transform="translate(0 0)"><g transform="translate(0 0)"><path class="a" d="M92.557,21.715c-.007-.04-.005-.082-.015-.121a1.286,1.286,0,0,0-.126-.306,1,1,0,0,0-.068-.09,1.275,1.275,0,0,0-.134-.175c-.03-.031-.068-.052-.1-.08a1.266,1.266,0,0,0-.157-.123l-.01,0-.008-.006L81.193,14.653a1.287,1.287,0,0,0-1.279,0L69.163,20.809l-.008.006-.01,0a1.267,1.267,0,0,0-.158.124.922.922,0,0,0-.1.079,1.276,1.276,0,0,0-.135.177c-.021.031-.049.057-.067.089a1.289,1.289,0,0,0-.126.306c-.01.037-.009.078-.015.116a1.262,1.262,0,0,0-.028.214v2.62l-9.562-5.988a1.26,1.26,0,0,0,.026-.2V7.613a1.264,1.264,0,0,0-.028-.21c-.007-.04-.005-.082-.015-.121a1.286,1.286,0,0,0-.126-.306,1.3,1.3,0,0,0-.083-.11,1.273,1.273,0,0,0-.118-.155,1.314,1.314,0,0,0-.122-.1,1.264,1.264,0,0,0-.138-.108h-.007L58.338,6.5,47.587.341a1.287,1.287,0,0,0-1.279,0L35.557,6.5l-.009.007H35.54a1.263,1.263,0,0,0-.139.109,1.31,1.31,0,0,0-.121.095,1.276,1.276,0,0,0-.12.157,1.306,1.306,0,0,0-.082.108,1.285,1.285,0,0,0-.126.306c-.01.037-.009.078-.015.116a1.263,1.263,0,0,0-.028.214V18.361a1.258,1.258,0,0,0,.026.2l-9.559,5.987V21.925a1.263,1.263,0,0,0-.028-.21c-.007-.04-.005-.082-.015-.121a1.285,1.285,0,0,0-.126-.306,1,1,0,0,0-.068-.09,1.277,1.277,0,0,0-.134-.175c-.03-.031-.068-.052-.1-.08a1.264,1.264,0,0,0-.157-.123l-.01,0-.008-.006L13.983,14.653a1.287,1.287,0,0,0-1.279,0L1.956,20.809l-.008.006-.01,0a1.268,1.268,0,0,0-.158.124.922.922,0,0,0-.1.079,1.276,1.276,0,0,0-.135.177c-.021.031-.049.057-.067.089a1.288,1.288,0,0,0-.126.306c-.01.037-.009.078-.015.116a1.263,1.263,0,0,0-.028.214V32.673a1.286,1.286,0,0,0,.67,1.129l10.079,5.5V54.031l-10.1,5.785-.008.006-.01,0a1.267,1.267,0,0,0-.158.124.923.923,0,0,0-.1.079,1.275,1.275,0,0,0-.135.177c-.021.031-.049.057-.067.089a1.288,1.288,0,0,0-.126.306c-.01.037-.009.078-.015.116a1.263,1.263,0,0,0-.028.214V71.68a1.286,1.286,0,0,0,.671,1.129l10.748,5.867a1.268,1.268,0,0,0,.187.073,1.085,1.085,0,0,0,.1.04,1.243,1.243,0,0,0,.653,0c.035-.01.068-.028.1-.04a1.268,1.268,0,0,0,.187-.073l9.126-4.982L34.917,81.57V86.9a1.286,1.286,0,0,0,.67,1.129L46.334,93.9a1.266,1.266,0,0,0,.187.073,1.085,1.085,0,0,0,.1.04,1.243,1.243,0,0,0,.653,0c.035-.01.068-.028.1-.04a1.266,1.266,0,0,0,.187-.073l10.745-5.868a1.286,1.286,0,0,0,.669-1.129v-5.33l11.832-7.877,9.126,4.982a1.266,1.266,0,0,0,.187.073,1.085,1.085,0,0,0,.1.04,1.244,1.244,0,0,0,.653,0c.035-.01.068-.028.1-.04a1.266,1.266,0,0,0,.187-.073l10.744-5.865a1.286,1.286,0,0,0,.669-1.129V60.932a1.263,1.263,0,0,0-.028-.21c-.007-.04-.005-.082-.015-.121a1.285,1.285,0,0,0-.126-.306,1.007,1.007,0,0,0-.068-.09,1.277,1.277,0,0,0-.134-.175c-.03-.031-.068-.052-.1-.08a1.265,1.265,0,0,0-.157-.123l-.01,0-.008-.006-10.1-5.785V39.305l10.078-5.5a1.286,1.286,0,0,0,.669-1.129V21.925a1.263,1.263,0,0,0-.026-.21ZM54.731,76.306l-7.784,4.249-7.784-4.249-.329-.18,8.113-4.646,8.113,4.643ZM22.8,31.91l-8.176,4.462V28.555L22.8,24.093ZM13.343,56.258,21.456,60.9l-.329.18-7.784,4.249L5.559,61.084,5.23,60.9Zm10.64,3.129L14.629,54.03V39.305l8.52-4.651,11.764,7.655v9.383Zm13.5-41.79V9.78l8.176,4.465V22.06Zm18.923,0L48.233,22.06V14.246l8.176-4.464Zm-9.462,19.34,8.113,4.646-.329.18-7.784,4.249-7.784-4.249-.329-.18Zm-9.462,6.841,8.176,4.463V56.06L37.486,51.6Zm10.748,4.463,8.176-4.463V51.6L48.233,56.06Zm10.748-5.933,11.764-7.657,8.52,4.653V54.031l-9.354,5.357-10.931-7.7ZM79.264,28.555v7.817L71.09,31.91V24.093ZM71.09,70.917V63.1l8.176,4.463v7.817Zm17.245-9.833-7.784,4.249-7.785-4.249-.329-.18,8.113-4.646L88.664,60.9ZM80.551,17.251,88.664,21.9l-.329.18-7.784,4.249-7.785-4.249-.329-.18ZM68.562,33l-10.91,7.1L48.233,34.71V24.991l8.628-4.711,11.656,7.3v5.093a1.283,1.283,0,0,0,.046.331ZM46.947,2.939,55.06,7.586,47.3,11.82l-.356.194-.356-.194L38.835,7.585ZM37.034,20.283l8.628,4.711V34.71L36.242,40.1,25.332,33a1.283,1.283,0,0,0,.045-.331V27.579Zm-23.69-3.031L21.456,21.9l-.329.18-7.784,4.249L5.559,22.077,5.23,21.9Zm-9.46,6.842,8.176,4.463v7.816L3.883,31.91Zm0,39.007,8.176,4.463V75.38L3.883,70.917Zm10.748,4.463L22.806,63.1v7.817l-8.176,4.462Zm10.675,4.518a1.273,1.273,0,0,0,.073-.4V61.552l10.906-7.681,9.376,5.118V69.252l-10.1,5.785-.008.006-.01,0a1.267,1.267,0,0,0-.158.124.922.922,0,0,0-.1.079,1.275,1.275,0,0,0-.135.177c-.021.031-.049.057-.067.089a1.289,1.289,0,0,0-.126.306c-.01.037-.009.078-.015.116a1.264,1.264,0,0,0-.028.214v2.327Zm12.18,8.794V78.32l8.176,4.463V90.6l-8.176-4.462ZM48.233,90.6V82.784l8.176-4.463v7.818ZM58.981,76.153a1.264,1.264,0,0,0-.028-.21c-.007-.04-.005-.082-.015-.121a1.286,1.286,0,0,0-.126-.306,1,1,0,0,0-.068-.09,1.276,1.276,0,0,0-.134-.175c-.03-.031-.068-.052-.1-.08a1.264,1.264,0,0,0-.157-.123l-.01,0-.008-.006-10.1-5.785V58.989l9.376-5.118,10.909,7.681V71.68a1.274,1.274,0,0,0,.073.4l-9.608,6.4Zm22.855-.775V67.562L90.011,63.1v7.818Zm0-39.007V28.555l8.176-4.462V31.91Z" transform="translate(-1.309 -0.171)"/></g></g></svg>