<svg xmlns="http://www.w3.org/2000/svg" width="20.261" height="20.261" viewBox="0 0 20.261 20.261"><defs><style>.a{fill:#fff;}</style></defs><g transform="translate(-526.603 -5238)"><path class="a" d="M128.389,120h-6.015A2.377,2.377,0,0,0,120,122.374v6.015a2.377,2.377,0,0,0,2.374,2.374h6.015a2.377,2.377,0,0,0,2.374-2.374v-6.015A2.377,2.377,0,0,0,128.389,120Zm-3.007,8.35a2.968,2.968,0,1,1,2.968-2.968A2.971,2.971,0,0,1,125.382,128.35Zm3.4-5.777a.594.594,0,1,1,.594-.594A.594.594,0,0,1,128.785,122.572Zm0,0" transform="translate(411.351 5122.749)"/><path class="a" d="M14.918,0H5.342A5.348,5.348,0,0,0,0,5.342v9.576a5.348,5.348,0,0,0,5.342,5.342h9.576a5.348,5.348,0,0,0,5.342-5.342V5.342A5.348,5.348,0,0,0,14.918,0ZM16.7,13.138A3.566,3.566,0,0,1,13.138,16.7H7.123a3.566,3.566,0,0,1-3.561-3.561V7.123A3.566,3.566,0,0,1,7.123,3.561h6.015A3.566,3.566,0,0,1,16.7,7.123Zm0,0" transform="translate(526.603 5238)"/></g></svg>