<svg xmlns="http://www.w3.org/2000/svg" width="20.261" height="20.26" viewBox="0 0 20.261 20.26"><defs><style>.a{fill:#fff;}</style></defs><g transform="translate(-479.603 -5238)"><path class="a" d="M21.578,21.441h.005V14.009c0-3.635-.783-6.435-5.032-6.435a4.412,4.412,0,0,0-3.974,2.184h-.059V7.913H8.489V21.44h4.2v-6.7c0-1.764.334-3.469,2.518-3.469,2.152,0,2.184,2.013,2.184,3.582v6.586Z" transform="translate(478.28 5236.82)"/><path class="a" d="M.4,7.977H4.6V21.5H.4Z" transform="translate(479.541 5236.757)"/><path class="a" d="M2.433,0A2.444,2.444,0,1,0,4.866,2.433,2.434,2.434,0,0,0,2.433,0Z" transform="translate(479.603 5238)"/></g></svg>