<svg version="1.2" baseProfile="tiny-ps" xmlns="http://www.w3.org/2000/svg" viewBox="0 0 235 75" width="235" height="75">
	<title>logo-svg</title>
	<defs>
		<linearGradient id="grd1" gradientUnits="userSpaceOnUse"  x1="26.804" y1="73.356" x2="26.804" y2="2.935">
			<stop offset="0" stop-color="#fab51c"  />
			<stop offset="1" stop-color="#f85c09"  />
		</linearGradient>
		<linearGradient id="grd2" gradientUnits="userSpaceOnUse"  x1="104.785" y1="8.692" x2="1174.467" y2="56.276">
			<stop offset="0" stop-color="#fab51c"  />
			<stop offset="1" stop-color="#f85c09"  />
		</linearGradient>
	</defs>
	<style>
		tspan { white-space:pre }
		.shp0 { fill: #ffffff } 
		.shp1 { fill: url(#grd1) } 
		.shp2 { opacity: 0;fill: #ffffff;stroke: #000000 } 
		.shp3 { opacity: 0;fill: url(#grd2);stroke: #000000 } 
		.shp4 { fill: none;stroke: #ffffff } 
		.shp5 { fill: none;stroke: #535353 } 
	</style>
	<g id="Layer">
		<g id="Layer">
			<g id="Layer">
				<path id="Layer" class="shp0" d="M67.17 24.72L67.17 31.3L30.75 31.3L30.75 24.72L67.17 24.72Z" />
				<path id="Layer" class="shp0" d="M22.67 24.72L22.67 31.3L9.42 31.3L9.42 24.72L22.67 24.72Z" />
				<path id="Layer" class="shp0" d="M22.87 46.76L22.87 53.34L9.42 53.34L9.42 46.76L22.87 46.76Z" />
				<path id="Layer" class="shp0" d="M66.81 46.76L66.81 53.34L52.61 53.34L52.61 46.76L66.81 46.76Z" />
				<g id="Layer">
					<path id="Layer" class="shp0" d="M4.79 20.52L13.85 20.53L18.39 28.37L13.86 36.21L4.8 36.21L0.26 28.36L4.79 20.52Z" />
					<path id="Layer" class="shp0" d="M4.79 42.61L13.85 42.61L18.39 50.46L13.86 58.3L4.8 58.29L0.26 50.45L4.79 42.61Z" />
					<path id="Layer" class="shp0" d="M61.2 42.61L70.26 42.61L74.8 50.46L70.27 58.3L61.21 58.29L56.67 50.45L61.2 42.61Z" />
					<path id="Layer" class="shp0" d="M61.2 20.52L70.26 20.53L74.8 28.37L70.27 36.21L61.21 36.21L56.67 28.36L61.2 20.52Z" />
					<g id="Layer">
						<path id="Layer" class="shp1" d="M34.64 6.18L34.65 15.24L30.03 17.91L30.03 46.07L23.44 46.07L23.44 17.82L18.96 15.23L18.96 6.17L26.8 1.64L34.64 6.18ZM23.45 46.76L30.03 46.76L30.03 53.34L23.45 53.34L23.45 46.75L23.45 46.76ZM23.45 54.03L30.03 54.03L30.03 57.1L34.64 59.77L34.65 68.83L26.81 73.36L18.96 68.82L18.96 59.76L23.45 57.17L23.45 54.03L23.45 54.03Z" />
						<path id="Layer" class="shp0" d="M51.97 23.99L45.38 23.99L45.38 10.08L51.97 10.08L51.97 23.99Z" />
						<path id="Layer" class="shp0" d="M51.97 64.3L45.38 64.3L45.38 32L51.97 32L51.97 64.3Z" />
						<path id="Layer" class="shp0" d="M48.67 1.64L56.51 6.18L56.52 15.24L48.68 19.77L40.83 15.23L40.83 6.17L48.67 1.64Z" />
						<path id="Layer" class="shp0" d="M48.67 55.23L56.51 59.77L56.52 68.83L48.68 73.36L40.83 68.82L40.83 59.76L48.67 55.23Z" />
					</g>
				</g>
				<path id="Layer" class="shp0" d="M44.69 46.76L44.69 53.34L21.31 53.34L21.31 46.76L44.69 46.76Z" />
			</g>
			<g id="Layer">
				<path id="Layer" fill-rule="evenodd" class="shp2" d="M160.13 56.28L160.13 39.28C160.13 35.18 157.56 32.1 153.07 32.1C151.97 32.12 150.88 32.35 149.86 32.78C148.85 33.21 147.92 33.83 147.14 34.6C146.35 35.38 145.72 36.29 145.27 37.3C144.83 38.31 144.58 39.4 144.54 40.5L144.54 56.28L141.92 56.28L141.92 9.46L144.54 9.46L144.54 34.8C144.97 34.03 145.49 33.32 146.11 32.7C146.72 32.07 147.42 31.53 148.18 31.09C148.94 30.66 149.75 30.32 150.6 30.1C151.45 29.88 152.32 29.78 153.2 29.8C159.23 29.8 162.76 33.77 162.76 38.9L162.76 56.28L160.13 56.28ZM184.94 56.27L184.94 53.32C184.3 53.91 183.6 54.43 182.87 54.89C182.13 55.34 181.35 55.73 180.54 56.05C179.73 56.37 178.89 56.61 178.04 56.78C177.19 56.94 176.32 57.03 175.45 57.04C170.39 57.04 166.22 54.22 166.22 48.96C166.22 42.94 171.16 39.99 179.69 39.99L184.94 39.99L184.94 37.87C184.94 33.06 181.22 32.23 177.63 32.23C176.96 32.2 176.29 32.21 175.62 32.28C174.94 32.34 174.28 32.45 173.62 32.61C172.97 32.77 172.32 32.97 171.7 33.22C171.07 33.46 170.46 33.75 169.87 34.09L168.78 31.91C169.46 31.54 170.16 31.22 170.87 30.95C171.59 30.67 172.32 30.45 173.07 30.27C173.82 30.09 174.57 29.96 175.34 29.88C176.1 29.8 176.87 29.77 177.63 29.79C184.56 29.79 187.57 32.93 187.57 37.61L187.57 56.28L184.94 56.27ZM184.94 42.3L179.94 42.3C172.95 42.3 168.98 44.22 168.98 48.97C168.98 52.56 171.86 54.61 175.45 54.61C176.33 54.57 177.19 54.45 178.04 54.26C178.9 54.07 179.73 53.81 180.54 53.48C181.35 53.14 182.12 52.74 182.86 52.28C183.6 51.81 184.3 51.28 184.94 50.7L184.94 42.3ZM209.25 49.6C209.25 54.03 204.63 57.05 200.27 57.05C199.48 57.05 198.68 56.98 197.9 56.86C197.12 56.73 196.34 56.55 195.59 56.3C194.83 56.06 194.1 55.76 193.39 55.4C192.68 55.04 192 54.62 191.36 54.16L192.96 52.11C193.48 52.5 194.03 52.86 194.61 53.16C195.19 53.47 195.79 53.73 196.41 53.94C197.03 54.15 197.67 54.32 198.31 54.43C198.96 54.54 199.61 54.6 200.27 54.61C203.41 54.61 206.49 52.49 206.49 49.61C206.49 45.95 203.15 44.99 199.24 43.9C195.46 42.87 191.74 41.08 191.74 36.53C191.74 32.1 196.17 29.79 200.01 29.79C200.76 29.77 201.51 29.82 202.25 29.94C202.99 30.05 203.72 30.23 204.43 30.47C205.14 30.71 205.83 31.01 206.49 31.37C207.14 31.73 207.77 32.14 208.35 32.61L206.81 34.54C206.33 34.15 205.81 33.8 205.26 33.5C204.72 33.2 204.15 32.95 203.56 32.75C202.97 32.54 202.36 32.39 201.75 32.3C201.13 32.2 200.51 32.15 199.89 32.16C197.26 32.16 194.44 33.64 194.44 36.4C194.44 39.35 196.81 40.44 200.66 41.53C204.82 42.68 209.25 44.09 209.25 49.6ZM231.63 56.28L231.63 39.28C231.63 35.18 229.07 32.1 224.58 32.1C223.47 32.12 222.39 32.35 221.37 32.78C220.35 33.21 219.43 33.83 218.64 34.6C217.85 35.38 217.22 36.29 216.78 37.3C216.33 38.31 216.09 39.4 216.05 40.5L216.05 56.28L213.42 56.28L213.42 9.46L216.05 9.46L216.05 34.8C216.47 34.03 217 33.32 217.61 32.7C218.23 32.07 218.92 31.53 219.68 31.09C220.44 30.66 221.26 30.32 222.1 30.1C222.95 29.88 223.83 29.78 224.7 29.8C230.73 29.8 234.26 33.77 234.26 38.9L234.26 56.28L231.63 56.28ZM209.25 49.61C209.25 49.61 209.25 49.61 209.25 49.6L209.25 49.6L209.25 49.61Z" />
				<g id="Layer">
					<path id="Layer" class="shp3" d="M137.49 22.22C137.49 13.25 130.5 8.69 122.23 8.69C113.89 8.69 106.07 13.5 106.07 23.57L106.07 24.6L115.69 24.6L115.69 23.57C115.69 18.31 118.89 17.03 122.23 17.03C122.9 17.02 123.57 17.15 124.2 17.41C124.82 17.67 125.39 18.05 125.85 18.54C126.32 19.03 126.69 19.61 126.92 20.24C127.16 20.87 127.26 21.55 127.23 22.22C127.23 25.43 126.39 27.1 124.47 29.66L104.79 56.28L137.11 56.28L137.11 47.62L122.23 47.62L133.07 33.51C135.57 30.24 137.49 27.03 137.49 22.22Z" />
					<path id="Layer" class="shp4" d="M137.19 52.01L113.14 52.01C113.14 52.01 123.34 38.33 127.5 32.83C130.08 29.33 132.33 25.42 132.25 22.33C132.27 20.98 132.01 19.65 131.48 18.4C130.96 17.16 130.18 16.04 129.2 15.12C128.22 14.19 127.05 13.48 125.78 13.03C124.51 12.58 123.16 12.4 121.81 12.5C113 12.38 110.69 20.31 110.63 24.5" />
				</g>
				<g id="Layer">
					<path id="Layer" class="shp2" d="M115.57 28.64L105.32 28.64L100.89 39.99C100.79 40.27 100.69 40.56 100.6 40.85C100.52 41.14 100.43 41.44 100.36 41.73C100.28 42.02 100.22 42.32 100.15 42.62C100.09 42.91 100.04 43.21 99.99 43.51C99.94 43.22 99.89 42.92 99.83 42.62C99.77 42.33 99.7 42.03 99.63 41.74C99.56 41.44 99.49 41.15 99.41 40.86C99.33 40.57 99.25 40.28 99.16 39.99L94.73 28.64L84.15 28.64L96.59 56.28L103.39 56.28L115.57 28.64Z" />
					<path id="Layer" class="shp5" d="M89.73 28.74L99.95 52.75" />
					<path id="Layer" class="shp5" d="M110.65 28.74L99.95 52.75" />
				</g>
			</g>
		</g>
	</g>
</svg>