<svg xmlns="http://www.w3.org/2000/svg" xmlns:xlink="http://www.w3.org/1999/xlink" width="58.459" height="55.034" viewBox="0 0 58.459 55.034"><defs><style>.a{fill:url(#a);}</style><linearGradient id="a" x1="0.5" x2="0.5" y2="1" gradientUnits="objectBoundingBox"><stop offset="0" stop-color="#614b63"/><stop offset="1" stop-color="#8686a7"/></linearGradient></defs><g transform="translate(0 -15.002)"><path class="a" d="M468.4,269.079l1.827-.8a1.713,1.713,0,1,0-1.373-3.138l-1.827.8a1.713,1.713,0,0,0,1.373,3.138Z" transform="translate(-412.79 -221.452)"/><path class="a" d="M470.223,392.942l-1.827-.8a1.713,1.713,0,0,0-1.373,3.138l1.827.8a1.713,1.713,0,1,0,1.373-3.138Z" transform="translate(-412.79 -333.952)"/><path class="a" d="M469.54,332h-1.827a1.713,1.713,0,1,0,0,3.425h1.827a1.713,1.713,0,1,0,0-3.425Z" transform="translate(-412.793 -280.806)"/><path class="a" d="M33.05,42.633c13.792-6.84,12.87-6.394,13.192-6.515V20.14A5.144,5.144,0,0,0,41.1,15H5.138A5.144,5.144,0,0,0,0,20.14V47.657a5.144,5.144,0,0,0,5.138,5.138h12.1v-2.74a7.43,7.43,0,0,1,7.422-7.422Zm-16.014-.352a1.714,1.714,0,0,1-2.479-1.532v-13.7a1.714,1.714,0,0,1,2.479-1.532l13.7,6.851a1.714,1.714,0,0,1,0,3.064Z"/><path class="a" d="M157.5,152.931l8.159-4.079-8.159-4.08Z" transform="translate(-139.517 -114.953)"/><path class="a" d="M185,285.019a4,4,0,0,0-4,4v5.709a4,4,0,0,0,3.132,3.9l-1.4,8.377A1.713,1.713,0,0,0,184.425,309h6.851a1.713,1.713,0,0,0,1.686-1.413l1.547-8.7.192.1V284.763l-.516.256Z" transform="translate(-160.334 -238.96)"/><path class="a" d="M340.515,227.167,331,231.885v17.609l9.515,4.718a1.714,1.714,0,0,0,2.474-1.534V228.7A1.714,1.714,0,0,0,340.515,227.167Z" transform="translate(-293.207 -187.781)"/></g></svg>