<svg version="1.2" baseProfile="tiny-ps" xmlns="http://www.w3.org/2000/svg" viewBox="0 0 1939 108" width="1939" height="108">
	<title>NAV-svg</title>
	<defs>
		<linearGradient id="grd1" gradientUnits="userSpaceOnUse"  x1="969.5" y1="54" x2="969.5" y2="108">
			<stop offset="0" stop-color="#0d212e" stop-opacity="0.91" />
			<stop offset="0.908" stop-color="#883b00" stop-opacity="0.74" />
			<stop offset="1" stop-color="#b88f08"  />
		</linearGradient>
	</defs>
	<style>
		tspan { white-space:pre }
		.shp0 { fill: url(#grd1) } 
		.shp1 { fill: none;stroke: #ff6f00;stroke-width: 0.5 } 
		.shp2 { fill: none } 
		.shp3 { opacity: 0.431;fill: #ffffff } 
		.shp4 { opacity: 0.188;fill: #ffaa00 } 
		.shp5 { opacity: 0.231;fill: #dc7d01 } 
		.shp6 { opacity: 0.231;fill: #dc9a01 } 
		.shp7 { opacity: 0.09;fill: #ffffff } 
	</style>
	<g id="Layer">
		<g id="Layer">
			<path id="Layer" class="shp0" d="M0 0L1939 0L1939 108L0 108L0 0Z" />
			<path id="Layer" class="shp1" d="M0.25 0.25L1938.75 0.25L1938.75 107.75L0.25 107.75L0.25 0.25Z" />
		</g>
		<g id="Layer">
			<g id="Layer">
				<g id="Layer">
					<g id="Layer">
						<path id="Layer" class="shp2" d="M108.32 -2.38L122.53 22.17L108.32 46.71L79.91 46.71L65.7 22.17L79.91 -2.38L108.32 -2.38Z" />
						<path id="Layer" fill-rule="evenodd" class="shp3" d="M79.91 -2.38L108.32 -2.38L122.53 22.17L108.32 46.71L79.91 46.71L65.7 22.17L79.91 -2.38ZM80.49 -1.38L66.86 22.17L80.49 45.71L107.75 45.71L121.38 22.17L107.75 -1.38L80.49 -1.38Z" />
					</g>
					<g id="Layer">
						<path id="Layer" class="shp2" d="M154.82 24.75L169.03 49.29L154.82 73.83L126.41 73.83L112.2 49.29L126.41 24.75L154.82 24.75Z" />
						<path id="Layer" fill-rule="evenodd" class="shp3" d="M126.41 24.75L154.82 24.75L169.03 49.29L154.82 73.83L126.41 73.83L112.2 49.29L126.41 24.75ZM126.98 25.75L113.35 49.29L126.98 72.83L154.25 72.83L167.87 49.29L154.25 25.75L126.98 25.75Z" />
					</g>
					<g id="Layer">
						<path id="Layer" class="shp4" d="M145.22 -13.03L154.5 2.95L145.22 18.94L126.65 18.94L117.36 2.95L126.65 -13.03L145.22 -13.03Z" />
						<path id="Layer" fill-rule="evenodd" class="shp3" d="M126.65 -13.03L145.22 -13.03L154.5 2.95L145.22 18.94L126.65 18.94L117.36 2.95L126.65 -13.03ZM127.22 -12.03L118.52 2.95L127.22 17.94L144.64 17.94L153.34 2.95L144.64 -12.03L127.22 -12.03Z" />
					</g>
					<g id="Layer">
						<path id="Layer" class="shp5" d="M105.42 51.55L117.37 72.05L105.42 92.55L81.52 92.55L69.58 72.05L81.52 51.55L105.42 51.55Z" />
						<path id="Layer" fill-rule="evenodd" class="shp3" d="M81.52 51.55L105.42 51.55L117.37 72.05L105.42 92.56L81.52 92.56L69.58 72.05L81.52 51.55ZM82.1 52.55L70.73 72.05L82.1 91.56L104.84 91.56L116.21 72.05L104.84 52.55L82.1 52.55Z" />
					</g>
				</g>
				<g id="Layer">
					<g id="Layer">
						<path id="Layer" class="shp2" d="M14.04 -2.38L28.24 22.17L14.04 46.71L-14.38 46.71L-28.59 22.17L-14.38 -2.38L14.04 -2.38Z" />
						<path id="Layer" fill-rule="evenodd" class="shp3" d="M-14.38 -2.38L14.04 -2.38L28.24 22.16L14.04 46.71L-14.38 46.71L-28.59 22.16L-14.38 -2.38ZM-13.8 -1.38L-27.43 22.16L-13.8 45.71L13.46 45.71L27.09 22.16L13.46 -1.38L-13.8 -1.38Z" />
					</g>
					<g id="Layer">
						<path id="Layer" class="shp2" d="M60.53 24.75L74.74 49.29L60.53 73.83L32.12 73.83L17.91 49.29L32.12 24.75L60.53 24.75Z" />
						<path id="Layer" fill-rule="evenodd" class="shp3" d="M32.12 24.75L60.54 24.75L74.74 49.29L60.54 73.83L32.12 73.83L17.91 49.29L32.12 24.75ZM32.7 25.75L19.07 49.29L32.7 72.83L59.96 72.83L73.59 49.29L59.96 25.75L32.7 25.75Z" />
					</g>
					<g id="Layer">
						<path id="Layer" class="shp6" d="M60.86 -24.33L73.45 -2.7L60.86 18.94L35.67 18.94L23.08 -2.7L35.67 -24.33L60.86 -24.33Z" />
						<path id="Layer" fill-rule="evenodd" class="shp3" d="M35.67 -24.33L60.86 -24.33L73.45 -2.7L60.86 18.94L35.67 18.94L23.08 -2.7L35.67 -24.33ZM36.25 -23.33L24.24 -2.7L36.25 17.94L60.28 17.94L72.29 -2.7L60.28 -23.33L36.25 -23.33Z" />
					</g>
					<g id="Layer">
						<path id="Layer" class="shp7" d="M11.86 51.55L21.14 67.53L11.86 83.52L-6.71 83.52L-15.99 67.53L-6.71 51.55L11.86 51.55Z" />
						<path id="Layer" fill-rule="evenodd" class="shp3" d="M-6.71 51.55L11.86 51.55L21.14 67.53L11.86 83.52L-6.71 83.52L-15.99 67.53L-6.71 51.55ZM-6.13 52.55L-14.84 67.53L-6.13 82.52L11.28 82.52L19.98 67.53L11.28 52.55L-6.13 52.55Z" />
					</g>
				</g>
			</g>
			<g id="Layer">
				<g id="Layer">
					<g id="Layer">
						<path id="Layer" class="shp2" d="M1765.55 27.04L1774.49 42.48L1765.55 57.92L1747.68 57.92L1738.74 42.48L1747.68 27.04L1765.55 27.04Z" />
						<path id="Layer" fill-rule="evenodd" class="shp3" d="M1747.68 27.04L1765.55 27.04L1774.49 42.48L1765.55 57.92L1747.68 57.92L1738.74 42.48L1747.68 27.04ZM1748.25 28.04L1739.89 42.48L1748.25 56.92L1764.98 56.92L1773.34 42.48L1764.98 28.04L1748.25 28.04Z" />
					</g>
					<g id="Layer">
						<path id="Layer" class="shp2" d="M1794.81 44.11L1803.75 59.55L1794.81 74.99L1776.93 74.99L1767.99 59.55L1776.93 44.11L1794.81 44.11Z" />
						<path id="Layer" fill-rule="evenodd" class="shp3" d="M1776.93 44.11L1794.81 44.11L1803.75 59.55L1794.81 74.99L1776.93 74.99L1767.99 59.55L1776.93 44.11ZM1777.51 45.11L1769.15 59.55L1777.51 73.99L1794.23 73.99L1802.59 59.55L1794.23 45.11L1777.51 45.11Z" />
					</g>
					<g id="Layer">
						<path id="Layer" class="shp4" d="M1788.77 20.34L1794.61 30.39L1788.77 40.45L1777.08 40.45L1771.24 30.39L1777.08 20.34L1788.77 20.34Z" />
						<path id="Layer" fill-rule="evenodd" class="shp3" d="M1777.08 20.34L1788.77 20.34L1794.61 30.4L1788.77 40.45L1777.08 40.45L1771.24 30.4L1777.08 20.34ZM1777.66 21.34L1772.4 30.4L1777.66 39.45L1788.19 39.45L1793.45 30.4L1788.19 21.34L1777.66 21.34Z" />
					</g>
					<g id="Layer">
						<path id="Layer" class="shp5" d="M1763.73 60.97L1771.24 73.87L1763.73 86.77L1748.69 86.77L1741.18 73.87L1748.69 60.97L1763.73 60.97Z" />
						<path id="Layer" fill-rule="evenodd" class="shp3" d="M1748.69 60.97L1763.73 60.97L1771.24 73.87L1763.73 86.77L1748.69 86.77L1741.18 73.87L1748.69 60.97ZM1749.27 61.97L1742.33 73.87L1749.27 85.77L1763.15 85.77L1770.09 73.87L1763.15 61.97L1749.27 61.97Z" />
					</g>
				</g>
				<g id="Layer">
					<g id="Layer">
						<path id="Layer" class="shp2" d="M1706.23 27.04L1715.17 42.48L1706.23 57.92L1688.35 57.92L1679.41 42.48L1688.35 27.04L1706.23 27.04Z" />
						<path id="Layer" fill-rule="evenodd" class="shp3" d="M1688.35 27.04L1706.23 27.04L1715.17 42.48L1706.23 57.92L1688.35 57.92L1679.41 42.48L1688.35 27.04ZM1688.93 28.04L1680.57 42.48L1688.93 56.92L1705.65 56.92L1714.01 42.48L1705.65 28.04L1688.93 28.04Z" />
					</g>
					<g id="Layer">
						<path id="Layer" class="shp2" d="M1735.49 44.11L1744.43 59.55L1735.49 74.99L1717.61 74.99L1708.67 59.55L1717.61 44.11L1735.49 44.11Z" />
						<path id="Layer" fill-rule="evenodd" class="shp3" d="M1717.61 44.11L1735.49 44.11L1744.43 59.55L1735.49 74.99L1717.61 74.99L1708.67 59.55L1717.61 44.11ZM1718.18 45.11L1709.82 59.55L1718.18 73.99L1734.91 73.99L1743.27 59.55L1734.91 45.11L1718.18 45.11Z" />
					</g>
					<g id="Layer">
						<path id="Layer" class="shp6" d="M1735.69 13.23L1743.61 26.84L1735.69 40.45L1719.84 40.45L1711.92 26.84L1719.84 13.23L1735.69 13.23Z" />
						<path id="Layer" fill-rule="evenodd" class="shp3" d="M1719.84 13.23L1735.69 13.23L1743.61 26.84L1735.69 40.45L1719.84 40.45L1711.92 26.84L1719.84 13.23ZM1720.42 14.23L1713.08 26.84L1720.42 39.45L1735.11 39.45L1742.46 26.84L1735.11 14.23L1720.42 14.23Z" />
					</g>
					<g id="Layer">
						<path id="Layer" class="shp7" d="M1704.86 60.97L1710.7 71.03L1704.86 81.08L1693.18 81.08L1687.34 71.03L1693.18 60.97L1704.86 60.97Z" />
						<path id="Layer" fill-rule="evenodd" class="shp3" d="M1693.18 60.97L1704.86 60.97L1710.7 71.03L1704.86 81.08L1693.18 81.08L1687.34 71.03L1693.18 60.97ZM1693.75 61.97L1688.49 71.03L1693.75 80.08L1704.28 80.08L1709.54 71.03L1704.28 61.97L1693.75 61.97Z" />
					</g>
				</g>
			</g>
			<g id="Layer">
				<g id="Layer">
					<g id="Layer">
						<path id="Layer" class="shp2" d="M1938.95 16.9L1953.39 41.85L1938.95 66.8L1910.06 66.8L1895.61 41.85L1910.06 16.9L1938.95 16.9Z" />
						<path id="Layer" fill-rule="evenodd" class="shp3" d="M1910.06 16.9L1938.95 16.9L1953.39 41.85L1938.95 66.8L1910.06 66.8L1895.61 41.85L1910.06 16.9ZM1910.63 17.9L1896.77 41.85L1910.63 65.8L1938.37 65.8L1952.24 41.85L1938.37 17.9L1910.63 17.9Z" />
					</g>
					<g id="Layer">
						<path id="Layer" class="shp2" d="M1986.22 44.48L2000.67 69.43L1986.22 94.38L1957.33 94.38L1942.89 69.43L1957.33 44.48L1986.22 44.48Z" />
						<path id="Layer" fill-rule="evenodd" class="shp3" d="M1957.33 44.48L1986.22 44.48L2000.67 69.43L1986.22 94.38L1957.33 94.38L1942.89 69.43L1957.33 44.48ZM1957.91 45.48L1944.04 69.43L1957.91 93.38L1985.64 93.38L1999.51 69.43L1985.64 45.48L1957.91 45.48Z" />
					</g>
					<g id="Layer">
						<path id="Layer" class="shp4" d="M1976.46 6.07L1985.89 22.32L1976.46 38.57L1957.58 38.57L1948.14 22.32L1957.58 6.07L1976.46 6.07Z" />
						<path id="Layer" fill-rule="evenodd" class="shp3" d="M1957.58 6.07L1976.45 6.07L1985.89 22.32L1976.45 38.57L1957.58 38.57L1948.14 22.32L1957.58 6.07ZM1958.15 7.07L1949.3 22.32L1958.15 37.57L1975.88 37.57L1984.74 22.32L1975.88 7.07L1958.15 7.07Z" />
					</g>
					<g id="Layer">
						<path id="Layer" class="shp5" d="M1935.99 71.73L1948.14 92.58L1935.99 113.42L1911.7 113.42L1899.55 92.58L1911.7 71.73L1935.99 71.73Z" />
						<path id="Layer" fill-rule="evenodd" class="shp3" d="M1911.7 71.73L1935.99 71.73L1948.14 92.57L1935.99 113.42L1911.7 113.42L1899.55 92.57L1911.7 71.73ZM1912.27 72.73L1900.71 92.57L1912.27 112.42L1935.42 112.42L1946.98 92.57L1935.42 72.73L1912.27 72.73Z" />
					</g>
				</g>
				<g id="Layer">
					<g id="Layer">
						<path id="Layer" class="shp2" d="M1843.08 16.9L1857.53 41.85L1843.08 66.8L1814.19 66.8L1799.75 41.85L1814.19 16.9L1843.08 16.9Z" />
						<path id="Layer" fill-rule="evenodd" class="shp3" d="M1814.19 16.9L1843.08 16.9L1857.53 41.85L1843.08 66.8L1814.19 66.8L1799.75 41.85L1814.19 16.9ZM1814.77 17.9L1800.9 41.85L1814.77 65.8L1842.51 65.8L1856.37 41.85L1842.51 17.9L1814.77 17.9Z" />
					</g>
					<g id="Layer">
						<path id="Layer" class="shp2" d="M1890.36 44.48L1904.8 69.43L1890.36 94.38L1861.47 94.38L1847.02 69.43L1861.47 44.48L1890.36 44.48Z" />
						<path id="Layer" fill-rule="evenodd" class="shp3" d="M1861.47 44.48L1890.36 44.48L1904.8 69.43L1890.36 94.38L1861.47 94.38L1847.02 69.43L1861.47 44.48ZM1862.04 45.48L1848.18 69.43L1862.04 93.38L1889.78 93.38L1903.65 69.43L1889.78 45.48L1862.04 45.48Z" />
					</g>
					<g id="Layer">
						<path id="Layer" class="shp6" d="M1890.69 -5.42L1903.49 16.58L1890.69 38.58L1865.08 38.58L1852.28 16.58L1865.08 -5.42L1890.69 -5.42Z" />
						<path id="Layer" fill-rule="evenodd" class="shp3" d="M1865.08 -5.42L1890.69 -5.42L1903.49 16.57L1890.69 38.57L1865.08 38.57L1852.28 16.57L1865.08 -5.42ZM1865.65 -4.42L1853.43 16.57L1865.65 37.57L1890.11 37.57L1902.33 16.57L1890.11 -4.42L1865.65 -4.42Z" />
					</g>
					<g id="Layer">
						<path id="Layer" class="shp7" d="M1840.87 71.73L1850.31 87.98L1840.87 104.23L1821.99 104.23L1812.55 87.98L1821.99 71.73L1840.87 71.73Z" />
						<path id="Layer" fill-rule="evenodd" class="shp3" d="M1821.99 71.73L1840.87 71.73L1850.31 87.98L1840.87 104.23L1821.99 104.23L1812.55 87.98L1821.99 71.73ZM1822.57 72.73L1813.71 87.98L1822.57 103.23L1840.29 103.23L1849.15 87.98L1840.29 72.73L1822.57 72.73Z" />
					</g>
				</g>
			</g>
		</g>
	</g>
</svg>