<svg xmlns="http://www.w3.org/2000/svg" xmlns:xlink="http://www.w3.org/1999/xlink" width="1939" height="108" viewBox="0 0 1939 108"><defs><style>.a{stroke:#ff6f00;stroke-width:0.5px;fill:url(#a);}.b,.d{fill:#fff;}.c{fill:url(#c);}.d,.e{stroke:rgba(0,0,0,0);}.e{fill:url(#d);}.f,.g,.i,.o{fill:none;}.f{stroke:#fff;}.g{stroke:#535353;}.h{clip-path:url(#e);}.j{fill:rgba(255,170,0,0.19);}.k{fill:rgba(220,125,1,0.23);}.l{fill:rgba(220,154,1,0.23);}.m{fill:rgba(255,255,255,0.09);}.n,.p{stroke:none;}.p{fill:rgba(255,255,255,0.43);}</style><linearGradient id="a" x1="0.5" y1="0.5" x2="0.5" y2="1" gradientUnits="objectBoundingBox"><stop offset="0" stop-color="#0d212e" stop-opacity="0.91"/><stop offset="0.908" stop-color="#883b00" stop-opacity="0.741"/><stop offset="1" stop-color="#b88f08"/></linearGradient><linearGradient id="c" x1="0.5" y1="1" x2="0.5" y2="0.018" gradientUnits="objectBoundingBox"><stop offset="0" stop-color="#fab51c"/><stop offset="1" stop-color="#f85c09"/></linearGradient><linearGradient id="d" y1="0" y2="1" xlink:href="#c"/><clipPath id="e"><rect class="a" width="1939" height="108" transform="translate(-11 50)"/></clipPath></defs><g transform="translate(11 -50)"><g class="a" transform="translate(-11 50)"><rect class="n" width="1939" height="108"/><rect class="o" x="0.25" y="0.25" width="1938.5" height="107.5"/></g><g transform="translate(167 65.381)"><g transform="translate(79.057 76.238) rotate(180)"><rect class="b" width="6.583" height="36.421" transform="translate(9.886 50.899) rotate(-90)"/><rect class="b" width="6.583" height="13.255" transform="translate(54.385 50.899) rotate(-90)"/><rect class="b" width="6.583" height="13.455" transform="translate(54.186 28.861) rotate(-90)"/><rect class="b" width="6.583" height="14.204" transform="translate(10.244 28.861) rotate(-90)"/><g transform="translate(0 0)"><path class="b" d="M13.579,0l4.526,7.849L13.579,15.7H4.526L0,7.849,4.526,0Z" transform="translate(79.057 43.337) rotate(120)"/><path class="b" d="M13.579,0l4.526,7.849L13.579,15.7H4.526L0,7.849,4.526,0Z" transform="translate(79.057 21.254) rotate(120)"/><path class="b" d="M13.579,0l4.526,7.849L13.579,15.7H4.526L0,7.849,4.526,0Z" transform="translate(22.648 21.254) rotate(120)"/><path class="b" d="M13.579,0l4.526,7.849L13.579,15.7H4.526L0,7.849,4.526,0Z" transform="translate(22.648 43.337) rotate(120)"/><g transform="translate(16.618 0)"><path class="c" d="M6925.762,1797.059l-.005-9.061,4.618-2.666v-28.167h6.583v28.251l4.482,2.591,0,9.061-7.839,4.526Zm11.194-40.58h-6.582V1749.9h6.583v6.583Zm0-7.27h-6.582v-3.073l-4.613-2.667-.005-9.061,7.839-4.526,7.845,4.533,0,9.062-4.487,2.591v3.141Z" transform="translate(-6899.963 -1727.619)"/><rect class="b" width="6.593" height="13.91" transform="translate(8.468 51.625)"/><rect class="b" width="6.593" height="32.295" transform="translate(8.468 11.324)"/><path class="b" d="M13.579,0l4.526,7.849L13.579,15.7H4.526L0,7.849,4.526,0Z" transform="translate(23.529 67.185) rotate(150)"/><path class="b" d="M13.579,0l4.526,7.849L13.579,15.7H4.526L0,7.849,4.526,0Z" transform="translate(23.529 13.595) rotate(150)"/></g></g><rect class="b" width="6.583" height="23.378" transform="translate(32.369 28.861) rotate(-90)"/></g><g transform="translate(86.153 9.311)"><path class="d" d="M355.978-221.826V-239.2c0-5.13-3.527-9.106-9.555-9.106a9.693,9.693,0,0,0-8.657,5V-268.64h-2.629v46.814h2.629V-237.6a8.706,8.706,0,0,1,8.529-8.4c4.489,0,7.054,3.078,7.054,7.182v16.994Zm24.818,0v-18.662c0-4.681-3.014-7.824-9.94-7.824a17.708,17.708,0,0,0-8.85,2.116l1.09,2.18a14.5,14.5,0,0,1,7.76-1.86c3.591,0,7.311.834,7.311,5.643v2.116h-5.259c-8.529,0-13.467,2.95-13.467,8.978,0,5.259,4.168,8.08,9.235,8.08a14.413,14.413,0,0,0,9.491-3.72v2.95Zm-2.629-5.579a15.26,15.26,0,0,1-9.491,3.912c-3.591,0-6.477-2.052-6.477-5.643,0-4.746,3.976-6.669,10.966-6.669h5Zm24.305-1.09c0-5.515-4.425-6.926-8.593-8.08-3.848-1.09-6.221-2.18-6.221-5.13,0-2.758,2.822-4.233,5.451-4.233a10.806,10.806,0,0,1,6.926,2.373l1.539-1.924a12.873,12.873,0,0,0-8.337-2.822c-3.848,0-8.273,2.309-8.273,6.734,0,4.553,3.72,6.349,7.5,7.375,3.912,1.09,7.247,2.052,7.247,5.708,0,2.886-3.078,5-6.221,5a12.4,12.4,0,0,1-7.311-2.5l-1.6,2.052a15.248,15.248,0,0,0,8.914,2.886C397.855-221.056,402.472-224.07,402.472-228.5Zm25.01,6.669V-239.2c0-5.13-3.527-9.106-9.555-9.106a9.693,9.693,0,0,0-8.658,5V-268.64H406.64v46.814h2.629V-237.6A8.706,8.706,0,0,1,417.8-246c4.489,0,7.054,3.078,7.054,7.182v16.994Z" transform="translate(-277.375 269.41)"/><g transform="translate(20.632)"><path class="e" d="M41.17-259.525c0-8.978-6.99-13.531-15.263-13.531-8.337,0-16.161,4.81-16.161,14.878v1.026h9.619v-1.026c0-5.259,3.206-6.541,6.541-6.541a4.935,4.935,0,0,1,5,5.194c0,3.206-.834,4.874-2.758,7.439L8.464-225.472H40.785v-8.657H25.907l10.838-14.108C39.246-251.509,41.17-254.715,41.17-259.525Z" transform="translate(-8.464 273.056)"/><path class="f" d="M5615.742-2584.371h-24.051s10.2-13.674,14.364-19.174c2.583-3.5,4.833-7.417,4.75-10.5a9.716,9.716,0,0,0-10.437-9.833c-8.812-.125-11.125,7.813-11.187,12" transform="translate(-5583.34 2627.686)"/></g><g transform="translate(0 19.944)"><path class="d" d="M35.1-158.608H24.843l-4.425,11.351a19.463,19.463,0,0,0-.9,3.527,27.329,27.329,0,0,0-.834-3.527l-4.425-11.351H3.68l12.441,27.64h6.8Z" transform="translate(-3.68 158.608)"/><line class="g" x2="10.221" y2="24.008" transform="translate(5.579 0.109)"/><line class="g" x1="10.697" y2="24.008" transform="translate(15.801 0.109)"/></g></g></g><g class="h"><g transform="translate(120.414 -122.333)"><g transform="translate(-65.713 159.302)"><g class="i" transform="translate(0 10.656)"><path class="n" d="M42.623,0,56.831,24.541,42.623,49.081H14.208L0,24.541,14.208,0Z"/><path class="p" d="M 14.78425979614258 1 L 1.155506134033203 24.54056930541992 L 14.78425979614258 48.08113861083984 L 42.04654312133789 48.08113861083984 L 55.67529678344727 24.54056930541992 L 42.04654312133789 1 L 14.78425979614258 1 M 14.20770263671875 0 L 42.62310028076172 0 L 56.83080291748047 24.54056930541992 L 42.62310028076172 49.08113861083984 L 14.20770263671875 49.08113861083984 L 0 24.54056930541992 L 14.20770263671875 0 Z"/></g><g class="i" transform="translate(46.498 37.78)"><path class="n" d="M42.623,0,56.831,24.541,42.623,49.081H14.208L0,24.541,14.208,0Z"/><path class="p" d="M 14.78425979614258 1 L 1.155506134033203 24.54056930541992 L 14.78425979614258 48.08113861083984 L 42.04654312133789 48.08113861083984 L 55.67529678344727 24.54056930541992 L 42.04654312133789 1 L 14.78425979614258 1 M 14.20770263671875 0 L 42.62310028076172 0 L 56.83080291748047 24.54056930541992 L 42.62310028076172 49.08113861083984 L 14.20770263671875 49.08113861083984 L 0 24.54056930541992 L 14.20770263671875 0 Z"/></g><g class="j" transform="translate(51.664 0)"><path class="n" d="M27.85,0l9.283,15.984L27.85,31.967H9.283L0,15.984,9.283,0Z"/><path class="p" d="M 9.859066009521484 1 L 1.15643310546875 15.98366069793701 L 9.859066009521484 30.96732139587402 L 27.27469253540039 30.96732139587402 L 35.97732543945312 15.98366069793701 L 27.27469253540039 1 L 9.859066009521484 1 M 9.283439636230469 0 L 27.85031890869141 0 L 37.13375854492188 15.98366069793701 L 27.85031890869141 31.96732139587402 L 9.283439636230469 31.96732139587402 L 0 15.98366069793701 L 9.283439636230469 0 Z"/></g><g class="k" transform="translate(3.875 64.58)"><path class="n" d="M35.842,0,47.79,20.5l-11.947,20.5H11.947L0,20.5,11.947,0Z"/><path class="p" d="M 12.52208709716797 1 L 1.157371520996094 20.5042896270752 L 12.52208709716797 40.00857925415039 L 35.26744079589844 40.00857925415039 L 46.63214492797852 20.5042896270752 L 35.26744079589844 1 L 12.52208709716797 1 M 11.94738388061523 0 L 35.84214401245117 0 L 47.78952407836914 20.5042896270752 L 35.84214401245117 41.00857925415039 L 11.94738388061523 41.00857925415039 L -7.62939453125e-06 20.5042896270752 L 11.94738388061523 0 Z"/></g></g><g transform="translate(-160 148)"><g class="i" transform="translate(0 21.957)"><path class="n" d="M42.623,0,56.831,24.541,42.623,49.081H14.208L0,24.541,14.208,0Z"/><path class="p" d="M 14.78425979614258 1 L 1.155506134033203 24.54056930541992 L 14.78425979614258 48.08113861083984 L 42.04654312133789 48.08113861083984 L 55.67529678344727 24.54056930541992 L 42.04654312133789 1 L 14.78425979614258 1 M 14.20770263671875 0 L 42.62310028076172 0 L 56.83080291748047 24.54056930541992 L 42.62310028076172 49.08113861083984 L 14.20770263671875 49.08113861083984 L 0 24.54056930541992 L 14.20770263671875 0 Z"/></g><g class="i" transform="translate(46.498 49.081)"><path class="n" d="M42.623,0,56.831,24.541,42.623,49.081H14.208L0,24.541,14.208,0Z"/><path class="p" d="M 14.78425979614258 1 L 1.155506134033203 24.54056930541992 L 14.78425979614258 48.08113861083984 L 42.04654312133789 48.08113861083984 L 55.67529678344727 24.54056930541992 L 42.04654312133789 1 L 14.78425979614258 1 M 14.20770263671875 0 L 42.62310028076172 0 L 56.83080291748047 24.54056930541992 L 42.62310028076172 49.08113861083984 L 14.20770263671875 49.08113861083984 L 0 24.54056930541992 L 14.20770263671875 0 Z"/></g><g class="l" transform="translate(51.664)"><path class="n" d="M37.78,0,50.373,21.634,37.78,43.269H12.593L0,21.634,12.593,0Z"/><path class="p" d="M 13.16817855834961 1.000003814697266 L 1.157077789306641 21.63445281982422 L 13.16817855834961 42.26890182495117 L 37.20457458496094 42.26890182495117 L 49.21566390991211 21.63445281982422 L 37.20457458496094 1.000003814697266 L 13.16817855834961 1.000003814697266 M 12.59318542480469 3.814697265625e-06 L 37.77956390380859 3.814697265625e-06 L 50.37274551391602 21.63445281982422 L 37.77956390380859 43.26890182495117 L 12.59318542480469 43.26890182495117 L -3.814697265625e-06 21.63445281982422 L 12.59318542480469 3.814697265625e-06 Z"/></g><g class="m" transform="translate(12.593 75.882)"><path class="n" d="M27.85,0l9.283,15.984L27.85,31.967H9.283L0,15.984,9.283,0Z"/><path class="p" d="M 9.859066009521484 1 L 1.15643310546875 15.98366069793701 L 9.859066009521484 30.96732139587402 L 27.27469253540039 30.96732139587402 L 35.97732543945312 15.98366069793701 L 27.27469253540039 1 L 9.859066009521484 1 M 9.283439636230469 0 L 27.85031890869141 0 L 37.13375854492188 15.98366069793701 L 27.85031890869141 31.96732139587402 L 9.283439636230469 31.96732139587402 L 0 15.98366069793701 L 9.283439636230469 0 Z"/></g></g></g><g transform="translate(1828.414 -84.772)"><g transform="translate(-100.677 155.111)"><g class="i" transform="translate(0 6.704)"><path class="n" d="M26.817,0l8.939,15.44L26.817,30.88H8.939L0,15.44,8.939,0Z"/><path class="p" d="M 9.515592575073242 0.9999961853027344 L 1.155502319335938 15.44014549255371 L 9.515592575073242 29.88028526306152 L 26.24053573608398 29.88028526306152 L 34.60062026977539 15.44014549255371 L 26.24053573608398 0.9999961853027344 L 9.515592575073242 0.9999961853027344 M 8.939035415649414 -3.814697265625e-06 L 26.81709480285645 -3.814697265625e-06 L 35.75612640380859 15.44014549255371 L 26.81709480285645 30.88028526306152 L 8.939035415649414 30.88028526306152 L -3.814697265625e-06 15.44014549255371 L 8.939035415649414 -3.814697265625e-06 Z"/></g><g class="i" transform="translate(29.255 23.77)"><path class="n" d="M26.817,0l8.939,15.44L26.817,30.88H8.939L0,15.44,8.939,0Z"/><path class="p" d="M 9.515592575073242 0.9999961853027344 L 1.155502319335938 15.44014549255371 L 9.515592575073242 29.88028526306152 L 26.24053573608398 29.88028526306152 L 34.60062026977539 15.44014549255371 L 26.24053573608398 0.9999961853027344 L 9.515592575073242 0.9999961853027344 M 8.939035415649414 -3.814697265625e-06 L 26.81709480285645 -3.814697265625e-06 L 35.75612640380859 15.44014549255371 L 26.81709480285645 30.88028526306152 L 8.939035415649414 30.88028526306152 L -3.814697265625e-06 15.44014549255371 L 8.939035415649414 -3.814697265625e-06 Z"/></g><g class="j" transform="translate(32.506 0)"><path class="n" d="M17.523,0l5.841,10.056L17.523,20.113H5.841L0,10.056,5.841,0Z"/><path class="p" d="M 6.416475296020508 1 L 1.15643310546875 10.05640983581543 L 6.416465759277344 19.11281967163086 L 16.94690132141113 19.11281967163086 L 22.20694351196289 10.05640983581543 L 16.94690132141113 1 L 6.416475296020508 1 M 5.840848922729492 0 L 17.52252769470215 0 L 23.36337852478027 10.05640983581543 L 17.52252769470215 20.11281967163086 L 5.840837478637695 20.11281967163086 L -1.9073486328125e-06 10.05640983581543 L 5.840848922729492 0 Z"/></g><g class="k" transform="translate(2.438 40.632)"><path class="n" d="M22.551,0l7.517,12.9L22.551,25.8H7.517L0,12.9,7.517,0Z"/><path class="p" d="M 8.091615676879883 1.000003814697266 L 1.157382965087891 12.90064430236816 L 8.091615676879883 24.80128479003906 L 21.97603225708008 24.80128479003906 L 28.91026496887207 12.90064430236816 L 21.97603225708008 1.000003814697266 L 8.091615676879883 1.000003814697266 M 7.516914367675781 3.814697265625e-06 L 22.55073356628418 3.814697265625e-06 L 30.0676441192627 12.90064430236816 L 22.55073356628418 25.80128479003906 L 7.516914367675781 25.80128479003906 L 3.814697265625e-06 12.90064430236816 L 7.516914367675781 3.814697265625e-06 Z"/></g></g><g transform="translate(-160 148)"><g class="i" transform="translate(0 13.815)"><path class="n" d="M26.817,0l8.939,15.44L26.817,30.88H8.939L0,15.44,8.939,0Z"/><path class="p" d="M 9.515592575073242 0.9999961853027344 L 1.155502319335938 15.44014549255371 L 9.515592575073242 29.88028526306152 L 26.24053573608398 29.88028526306152 L 34.60062026977539 15.44014549255371 L 26.24053573608398 0.9999961853027344 L 9.515592575073242 0.9999961853027344 M 8.939035415649414 -3.814697265625e-06 L 26.81709480285645 -3.814697265625e-06 L 35.75612640380859 15.44014549255371 L 26.81709480285645 30.88028526306152 L 8.939035415649414 30.88028526306152 L -3.814697265625e-06 15.44014549255371 L 8.939035415649414 -3.814697265625e-06 Z"/></g><g class="i" transform="translate(29.255 30.88)"><path class="n" d="M26.817,0l8.939,15.44L26.817,30.88H8.939L0,15.44,8.939,0Z"/><path class="p" d="M 9.515592575073242 0.9999961853027344 L 1.155502319335938 15.44014549255371 L 9.515592575073242 29.88028526306152 L 26.24053573608398 29.88028526306152 L 34.60062026977539 15.44014549255371 L 26.24053573608398 0.9999961853027344 L 9.515592575073242 0.9999961853027344 M 8.939035415649414 -3.814697265625e-06 L 26.81709480285645 -3.814697265625e-06 L 35.75612640380859 15.44014549255371 L 26.81709480285645 30.88028526306152 L 8.939035415649414 30.88028526306152 L -3.814697265625e-06 15.44014549255371 L 8.939035415649414 -3.814697265625e-06 Z"/></g><g class="l" transform="translate(32.506)"><path class="n" d="M23.77,0l7.923,13.612L23.77,27.223H7.923L0,13.612,7.923,0Z"/><path class="p" d="M 8.498226165771484 0.9999980926513672 L 1.157085418701172 13.61170864105225 L 8.498226165771484 26.22341918945312 L 23.1947021484375 26.22341918945312 L 30.53584289550781 13.61170864105225 L 23.1947021484375 0.9999980926513672 L 8.498226165771484 0.9999980926513672 M 7.923234939575195 -1.9073486328125e-06 L 23.76969528198242 -1.9073486328125e-06 L 31.69292449951172 13.61170864105225 L 23.76969528198242 27.22341918945312 L 7.923234939575195 27.22341918945312 L 3.814697265625e-06 13.61170864105225 L 7.923234939575195 -1.9073486328125e-06 Z"/></g><g class="m" transform="translate(7.923 47.743)"><path class="n" d="M17.523,0l5.841,10.056L17.523,20.113H5.841L0,10.056,5.841,0Z"/><path class="p" d="M 6.416475296020508 1 L 1.15643310546875 10.05640983581543 L 6.416465759277344 19.11281967163086 L 16.94690132141113 19.11281967163086 L 22.20694351196289 10.05640983581543 L 16.94690132141113 1 L 6.416475296020508 1 M 5.840848922729492 0 L 17.52252769470215 0 L 23.36337852478027 10.05640983581543 L 17.52252769470215 20.11281967163086 L 5.840837478637695 20.11281967163086 L -1.9073486328125e-06 10.05640983581543 L 5.840848922729492 0 Z"/></g></g></g><g transform="translate(1948.748 -103.422)"><g transform="translate(-64.137 159.49)"><g class="i" transform="translate(0 10.834)"><path class="n" d="M43.335,0,57.781,24.951,43.335,49.9H14.445L0,24.951,14.445,0Z"/><path class="p" d="M 15.02169418334961 1 L 1.155498504638672 24.95067977905273 L 15.02168273925781 48.90135955810547 L 42.75883483886719 48.90135955810547 L 56.62501907348633 24.95067977905273 L 42.75883483886719 1 L 15.02169418334961 1 M 14.44513320922852 0 L 43.33539581298828 0 L 57.78052520751953 24.95067977905273 L 43.33539581298828 49.90135955810547 L 14.44512557983398 49.90135955810547 L -3.814697265625e-06 24.95067977905273 L 14.44513320922852 0 Z"/></g><g class="i" transform="translate(47.275 38.411)"><path class="n" d="M43.335,0,57.781,24.951,43.335,49.9H14.445L0,24.951,14.445,0Z"/><path class="p" d="M 15.02169418334961 1 L 1.155498504638672 24.95067977905273 L 15.02168273925781 48.90135955810547 L 42.75883483886719 48.90135955810547 L 56.62501907348633 24.95067977905273 L 42.75883483886719 1 L 15.02169418334961 1 M 14.44513320922852 0 L 43.33539581298828 0 L 57.78052520751953 24.95067977905273 L 43.33539581298828 49.90135955810547 L 14.44512557983398 49.90135955810547 L -3.814697265625e-06 24.95067977905273 L 14.44513320922852 0 Z"/></g><g class="j" transform="translate(52.528 0)"><path class="n" d="M28.316,0l9.439,16.251L28.316,32.5H9.439L0,16.251,9.439,0Z"/><path class="p" d="M 10.01420593261719 1 L 1.15643310546875 16.25077056884766 L 10.01420593261719 31.50154113769531 L 27.7401123046875 31.50154113769531 L 36.59788513183594 16.25077056884766 L 27.7401123046875 1 L 10.01420593261719 1 M 9.438579559326172 0 L 28.31573867797852 0 L 37.75431823730469 16.25077056884766 L 28.31573867797852 32.50154113769531 L 9.438579559326172 32.50154113769531 L 0 16.25077056884766 L 9.438579559326172 0 Z"/></g><g class="k" transform="translate(3.94 65.66)"><path class="n" d="M36.441,0,48.588,20.847,36.441,41.694H12.147L0,20.847,12.147,0Z"/><path class="p" d="M 12.72174072265625 0.9999961853027344 L 1.157379150390625 20.84694480895996 L 12.72174072265625 40.69388580322266 L 35.86641693115234 40.69388580322266 L 47.43078231811523 20.84694480895996 L 35.86641693115234 0.9999961853027344 L 12.72174072265625 0.9999961853027344 M 12.14704132080078 -3.814697265625e-06 L 36.44112014770508 -3.814697265625e-06 L 48.58816146850586 20.84694480895996 L 36.44112014770508 41.69388580322266 L 12.14704132080078 41.69388580322266 L 0 20.84694480895996 L 12.14704132080078 -3.814697265625e-06 Z"/></g></g><g transform="translate(-160 148)"><g class="i" transform="translate(0 22.324)"><path class="n" d="M43.335,0,57.781,24.951,43.335,49.9H14.445L0,24.951,14.445,0Z"/><path class="p" d="M 15.02169418334961 1 L 1.155498504638672 24.95067977905273 L 15.02168273925781 48.90135955810547 L 42.75883483886719 48.90135955810547 L 56.62501907348633 24.95067977905273 L 42.75883483886719 1 L 15.02169418334961 1 M 14.44513320922852 0 L 43.33539581298828 0 L 57.78052520751953 24.95067977905273 L 43.33539581298828 49.90135955810547 L 14.44512557983398 49.90135955810547 L -3.814697265625e-06 24.95067977905273 L 14.44513320922852 0 Z"/></g><g class="i" transform="translate(47.275 49.901)"><path class="n" d="M43.335,0,57.781,24.951,43.335,49.9H14.445L0,24.951,14.445,0Z"/><path class="p" d="M 15.02169418334961 1 L 1.155498504638672 24.95067977905273 L 15.02168273925781 48.90135955810547 L 42.75883483886719 48.90135955810547 L 56.62501907348633 24.95067977905273 L 42.75883483886719 1 L 15.02169418334961 1 M 14.44513320922852 0 L 43.33539581298828 0 L 57.78052520751953 24.95067977905273 L 43.33539581298828 49.90135955810547 L 14.44512557983398 49.90135955810547 L -3.814697265625e-06 24.95067977905273 L 14.44513320922852 0 Z"/></g><g class="l" transform="translate(52.528)"><path class="n" d="M38.411,0l12.8,22-12.8,22H12.8L0,22,12.8,0Z"/><path class="p" d="M 13.37862777709961 0.9999961853027344 L 1.157077789306641 21.99599647521973 L 13.37862777709961 42.99199676513672 L 37.8359260559082 42.99199676513672 L 50.05747604370117 21.99599647521973 L 37.8359260559082 0.9999961853027344 L 13.37862777709961 0.9999961853027344 M 12.80363845825195 -3.814697265625e-06 L 38.41091918945312 -3.814697265625e-06 L 51.21455764770508 21.99599647521973 L 38.41091918945312 43.99199676513672 L 12.80363845825195 43.99199676513672 L -3.814697265625e-06 21.99599647521973 L 12.80363845825195 -3.814697265625e-06 Z"/></g><g class="m" transform="translate(12.804 77.15)"><path class="n" d="M28.316,0l9.439,16.251L28.316,32.5H9.439L0,16.251,9.439,0Z"/><path class="p" d="M 10.01420593261719 1 L 1.15643310546875 16.25077056884766 L 10.01420593261719 31.50154113769531 L 27.7401123046875 31.50154113769531 L 36.59788513183594 16.25077056884766 L 27.7401123046875 1 L 10.01420593261719 1 M 9.438579559326172 0 L 28.31573867797852 0 L 37.75431823730469 16.25077056884766 L 28.31573867797852 32.50154113769531 L 9.438579559326172 32.50154113769531 L 0 16.25077056884766 L 9.438579559326172 0 Z"/></g></g></g></g></g></svg>