<svg xmlns="http://www.w3.org/2000/svg" width="20.26" height="20.261" viewBox="0 0 20.26 20.261"><defs><style>.a{fill:#fff;}</style></defs><path class="a" d="M18.911,5.045a10.088,10.088,0,0,0-3.687-3.687A9.909,9.909,0,0,0,10.139,0,9.909,9.909,0,0,0,5.054,1.359,10.084,10.084,0,0,0,1.367,5.045,9.908,9.908,0,0,0,.008,10.131a9.82,9.82,0,0,0,1.675,5.58,10.1,10.1,0,0,0,4.393,3.707,8.739,8.739,0,0,1,.171-2.335l1.306-5.514a3.518,3.518,0,0,1-.33-1.609A3.022,3.022,0,0,1,7.79,8.086a1.686,1.686,0,0,1,1.385-.752,1.238,1.238,0,0,1,1.016.435,1.672,1.672,0,0,1,.356,1.095,4.1,4.1,0,0,1-.152,1q-.152.587-.4,1.359t-.35,1.233a1.5,1.5,0,0,0,.3,1.379,1.614,1.614,0,0,0,1.293.574,2.653,2.653,0,0,0,2.315-1.57,7.527,7.527,0,0,0,.9-3.812,3.74,3.74,0,0,0-1.115-2.81,4.274,4.274,0,0,0-3.107-1.082A4.8,4.8,0,0,0,5.257,9.986a3,3,0,0,0,.673,1.992.6.6,0,0,1,.145.567q-.026.079-.106.4c-.053.211-.088.348-.105.409q-.105.422-.5.264A2.976,2.976,0,0,1,3.82,12.149a5.275,5.275,0,0,1-.528-2.414,5.755,5.755,0,0,1,.284-1.767,6.029,6.029,0,0,1,.884-1.708A6.941,6.941,0,0,1,5.9,4.8,6.746,6.746,0,0,1,7.935,3.786,8.469,8.469,0,0,1,10.52,3.4a6.787,6.787,0,0,1,3.363.831,5.937,5.937,0,0,1,2.276,2.15,5.428,5.428,0,0,1,.785,2.823,8.875,8.875,0,0,1-.686,3.562,5.847,5.847,0,0,1-1.939,2.486,4.749,4.749,0,0,1-2.849.9,3.129,3.129,0,0,1-1.5-.376A2.2,2.2,0,0,1,9,14.893q-.594,2.334-.712,2.783a8.114,8.114,0,0,1-1.029,2.163,10.13,10.13,0,0,0,7.961-.937,10.082,10.082,0,0,0,3.687-3.686,9.911,9.911,0,0,0,1.359-5.085A9.906,9.906,0,0,0,18.911,5.045Z" transform="translate(-0.008)"/></svg>