<svg xmlns="http://www.w3.org/2000/svg" width="87.503" height="87.503" viewBox="0 0 87.503 87.503"><defs><style>.a{fill:#f8730d;}</style></defs><g transform="translate(0 0)"><g transform="translate(0 0)"><path class="a" d="M43.293,40.952A10.606,10.606,0,1,0,30.035,51.21v8.3a7.964,7.964,0,0,0,7.955,7.955H52.574a7.964,7.964,0,0,0,7.955-7.955V21.065a7.964,7.964,0,0,0-7.955-7.955H31.361a2.652,2.652,0,1,0,0,5.3H52.574a2.652,2.652,0,0,1,2.652,2.652V59.513a2.652,2.652,0,0,1-2.652,2.652H37.99a2.652,2.652,0,0,1-2.652-2.652v-8.3A10.616,10.616,0,0,0,43.293,40.952Zm-15.91,0A5.3,5.3,0,1,1,32.8,46.244c-.037,0-.072-.011-.109-.011s-.072.009-.109.011A5.3,5.3,0,0,1,27.384,40.952Z" transform="translate(11.064 2.8)"/><path class="a" d="M7.482,56.092a2.652,2.652,0,0,0,2.652-2.652V46.812a2.652,2.652,0,1,0-5.3,0v6.629A2.652,2.652,0,0,0,7.482,56.092Z" transform="translate(-4.83 31.411)"/><path class="a" d="M84.378,4.83H12.785A7.964,7.964,0,0,0,4.83,12.785V67.143a2.652,2.652,0,1,0,5.3,0V12.785a2.652,2.652,0,0,1,2.652-2.652H84.378a2.652,2.652,0,0,1,2.652,2.652v5.3a2.652,2.652,0,1,0,5.3,0v-5.3A7.964,7.964,0,0,0,84.378,4.83Z" transform="translate(-4.83 -4.83)"/><path class="a" d="M82.052,23.716A2.652,2.652,0,0,0,79.4,26.368V76.749A2.652,2.652,0,0,1,76.749,79.4H21.065a2.652,2.652,0,0,1-2.652-2.652V21.065a2.652,2.652,0,0,1,2.652-2.652h2.652a2.652,2.652,0,1,0,0-5.3H21.065a7.964,7.964,0,0,0-7.955,7.955V76.749A7.964,7.964,0,0,0,21.065,84.7H76.749A7.964,7.964,0,0,0,84.7,76.749V26.368A2.652,2.652,0,0,0,82.052,23.716Z" transform="translate(2.8 2.8)"/><circle class="a" cx="2.652" cy="2.652" r="2.652" transform="translate(0 67.616)"/><circle class="a" cx="2.652" cy="2.652" r="2.652" transform="translate(82.2 18.561)"/><circle class="a" cx="2.652" cy="2.652" r="2.652" transform="translate(31.819 15.91)"/></g></g></svg>