<svg xmlns="http://www.w3.org/2000/svg" xmlns:xlink="http://www.w3.org/1999/xlink" width="59.312" height="54.138" viewBox="0 0 59.312 54.138"><defs><style>.a{fill:url(#a);}</style><linearGradient id="a" x1="0.5" x2="0.5" y2="1" gradientUnits="objectBoundingBox"><stop offset="0" stop-color="#564056"/><stop offset="1" stop-color="#8a8bad"/></linearGradient></defs><g transform="translate(0 -25.092)"><path class="a" d="M58.656,46.085l-8.4-2.581V37.246a.93.93,0,0,0-.52-.837L27.047,25.182a.053.053,0,0,0-.018,0,.9.9,0,0,0-.458-.087.928.928,0,0,0-.478.165h0L9.913,36.8a.933.933,0,0,0-.393.76v8.055l-3.006-.358-.026,0a1.172,1.172,0,0,0-.216.005,1.027,1.027,0,0,0-.237.063l-.009,0L.555,47.751A.932.932,0,0,0,0,48.6V64.211a.93.93,0,0,0,.485.818l5.483,3.006a.942.942,0,0,0,.317.1.96.96,0,0,0,.266,0l2.968-.432v1.72a.935.935,0,0,0,.485.819l16.178,8.866a1.012,1.012,0,0,0,.416.116,1.026,1.026,0,0,0,.357-.057v-.005h.005l22.688-8.626L58.71,67.1a.933.933,0,0,0,.6-.872V46.978A.925.925,0,0,0,58.656,46.085ZM2.6,60.332a.308.308,0,0,1-.124.247.309.309,0,0,1-.271.053L1.17,60.343a.312.312,0,0,1-.228-.3V57.148a.312.312,0,0,1,.1-.231.306.306,0,0,1,.238-.078l1.039.1a.312.312,0,0,1,.281.309v3.083h0Zm0-6.165a.312.312,0,0,1-.287.31l-1.039.086H1.253a.309.309,0,0,1-.312-.311V51.358a.311.311,0,0,1,.232-.3l1.039-.274a.312.312,0,0,1,.269.056.306.306,0,0,1,.121.245v3.083h0ZM5.64,61.176a.31.31,0,0,1-.311.31.317.317,0,0,1-.083-.011l-1.424-.4a.31.31,0,0,1-.228-.3V57.406a.311.311,0,0,1,.1-.231.307.307,0,0,1,.24-.078l1.424.139a.31.31,0,0,1,.281.309v3.631h0Zm0-7.259a.313.313,0,0,1-.285.311l-1.425.117H3.9a.312.312,0,0,1-.312-.312V50.661a.313.313,0,0,1,.232-.3l1.425-.374a.307.307,0,0,1,.269.054.314.314,0,0,1,.121.246Zm7.793,9.422a.312.312,0,0,1-.311.312.3.3,0,0,1-.083-.011L11.2,63.13a.312.312,0,0,1-.228-.3v-4.7a.31.31,0,0,1,.1-.231.318.318,0,0,1,.238-.081L13.151,58a.31.31,0,0,1,.281.309v5.034Zm0-10.066a.31.31,0,0,1-.285.309l-1.836.151h-.025a.309.309,0,0,1-.211-.082.312.312,0,0,1-.1-.23v-4.7a.311.311,0,0,1,.232-.3l1.836-.483a.312.312,0,0,1,.39.3v5.036Zm0-10.068a.311.311,0,0,1-.184.285l-1.836.813a.315.315,0,0,1-.126.028.319.319,0,0,1-.17-.051.313.313,0,0,1-.141-.261v-4.7a.311.311,0,0,1,.146-.264l1.836-1.143a.311.311,0,0,1,.476.264v5.033Zm4.575,21.4a.312.312,0,0,1-.311.312.317.317,0,0,1-.083-.011l-2.46-.684a.311.311,0,0,1-.228-.3V58.512a.312.312,0,0,1,.1-.231.316.316,0,0,1,.238-.078l2.461.24a.311.311,0,0,1,.28.309V64.61Zm0-11.715a.311.311,0,0,1-.285.31l-2.46.2h-.026a.314.314,0,0,1-.312-.313V47.683a.311.311,0,0,1,.232-.3l2.46-.647a.306.306,0,0,1,.269.054.31.31,0,0,1,.121.246v5.859Zm0-11.715a.311.311,0,0,1-.184.285l-2.46,1.089a.294.294,0,0,1-.126.027.311.311,0,0,1-.31-.312V36.855a.311.311,0,0,1,.146-.264l2.46-1.533a.311.311,0,0,1,.476.264V41.18Zm6.366,25.2a.336.336,0,0,1-.1.244.437.437,0,0,1-.319.115h0a21.33,21.33,0,0,1-3.463-1.027.309.309,0,0,1-.2-.293V59.036a.315.315,0,0,1,.1-.231.31.31,0,0,1,.24-.078l3.467.338a.313.313,0,0,1,.281.309C24.373,59.442,24.371,66.079,24.373,66.378Zm0-14.008a.311.311,0,0,1-.286.309l-3.467.286h-.025a.314.314,0,0,1-.312-.313V46.273a.31.31,0,0,1,.232-.3l3.467-.911a.307.307,0,0,1,.269.054.31.31,0,0,1,.121.246V52.37h0Zm0-14.009a.31.31,0,0,1-.185.284L20.721,40.18a.294.294,0,0,1-.126.026.32.32,0,0,1-.17-.05.311.311,0,0,1-.141-.261v-6.38a.312.312,0,0,1,.146-.265L23.9,31.091a.31.31,0,0,1,.476.264V38.36Zm13.781-3.492a.312.312,0,0,1,.434-.286l3.7,1.6a.312.312,0,0,1,.188.286v5.526a.313.313,0,0,1-.31.312.316.316,0,0,1-.091-.014l-3.7-1.137a.311.311,0,0,1-.22-.3V34.868h0Zm0,11.978a.31.31,0,0,1,.366-.305l3.7.674a.311.311,0,0,1,.255.305V53.1a.312.312,0,0,1-.312.312h-.022l-3.7-.264a.31.31,0,0,1-.289-.309V46.846ZM28.521,30.7a.311.311,0,0,1,.434-.285l5.256,2.273a.312.312,0,0,1,.188.287v6.536a.313.313,0,0,1-.31.312A.332.332,0,0,1,34,39.812L28.741,38.2a.309.309,0,0,1-.22-.3V30.7Zm0,21.58V45.09a.31.31,0,0,1,.366-.305l5.256.958a.313.313,0,0,1,.256.307v6.536a.312.312,0,0,1-.312.312H34.07l-5.256-.3A.313.313,0,0,1,28.521,52.284ZM38.777,73.8a.312.312,0,0,1-.2.29L31.7,76.7a.3.3,0,0,1-.11.02.317.317,0,0,1-.177-.054.31.31,0,0,1-.134-.256V59.289a.311.311,0,0,1,.29-.311l6.879-.466a.311.311,0,0,1,.233.083.307.307,0,0,1,.1.227V73.8Zm8.29-3.153a.309.309,0,0,1-.2.29l-4.59,1.745a.308.308,0,0,1-.111.021.321.321,0,0,1-.177-.055.313.313,0,0,1-.134-.256V58.574a.311.311,0,0,1,.29-.31l4.59-.311a.309.309,0,0,1,.332.309Zm1.326-17.259a.312.312,0,0,1-.312.312h-.018l-2.746-.158a.311.311,0,0,1-.293-.31V48.1a.31.31,0,0,1,.367-.307l2.745.5a.311.311,0,0,1,.256.305v4.788Zm0-9.574a.313.313,0,0,1-.311.312.294.294,0,0,1-.092-.015l-2.745-.843a.311.311,0,0,1-.22-.3V37.838a.313.313,0,0,1,.14-.26.309.309,0,0,1,.294-.025l2.746,1.186a.312.312,0,0,1,.188.286v4.787h0ZM53.88,61.9a.311.311,0,0,1-.252.305l-2,.385a.312.312,0,0,1-.368-.305v-4.35a.311.311,0,0,1,.29-.31l2-.135a.318.318,0,0,1,.233.083.307.307,0,0,1,.1.227v4.1h0Zm0-8.2a.312.312,0,0,1-.312.31h-.018l-2-.115a.311.311,0,0,1-.293-.31v-4.35A.311.311,0,0,1,51.374,49a.316.316,0,0,1,.255-.068l1.994.363a.312.312,0,0,1,.256.307v4.1Zm3.373,7.551a.311.311,0,0,1-.252.305l-1.6.308a.312.312,0,0,1-.369-.305V57.68a.311.311,0,0,1,.29-.309l1.6-.109a.317.317,0,0,1,.234.082.312.312,0,0,1,.1.228v3.679Zm0-7.359a.315.315,0,0,1-.1.227.311.311,0,0,1-.213.085h-.018l-1.6-.091a.31.31,0,0,1-.293-.31V49.973a.312.312,0,0,1,.357-.309l1.6.241a.31.31,0,0,1,.264.308v3.68h0Z"/></g></svg>