<svg xmlns="http://www.w3.org/2000/svg" width="92.042" height="92.042" viewBox="0 0 92.042 92.042"><defs><style>.a{fill:#fff;}</style></defs><g transform="translate(0 0)"><g transform="translate(0 0)"><path class="a" d="M91.248,18.63H82.34a1.484,1.484,0,0,0-1.485,1.485V21.6H45.227a1.478,1.478,0,0,0-1.05.435l-1.92,1.92-1.92-1.92a1.478,1.478,0,0,0-1.05-.435H12.566V20.115a1.484,1.484,0,0,0-1.485-1.485H2.175A1.484,1.484,0,0,0,.69,20.115V55.744a1.484,1.484,0,0,0,1.485,1.485h8.907a1.484,1.484,0,0,0,1.485-1.485V54.259h11.9c0,.086-.025.168-.025.254A5.69,5.69,0,0,0,30.126,60.2c.1,0,.187-.022.282-.028,0,.1-.027.187-.027.282a5.69,5.69,0,0,0,5.683,5.684c.1,0,.187-.022.282-.028,0,.1-.027.187-.027.282a5.682,5.682,0,0,0,9.7,4.019l.69-.689.69.689a5.682,5.682,0,0,0,9.7-4.019c0-.1-.022-.187-.028-.282.1.006.187.028.284.028a5.69,5.69,0,0,0,5.683-5.684c0-.1-.022-.187-.028-.282.1.006.187.028.284.028a5.69,5.69,0,0,0,5.683-5.684c0-.086-.021-.169-.025-.254h11.9v1.485a1.484,1.484,0,0,0,1.485,1.485h8.907a1.484,1.484,0,0,0,1.485-1.485V20.115A1.484,1.484,0,0,0,91.248,18.63ZM9.6,54.259H3.659V21.6H9.6v32.66Zm2.969-29.691H38.674l5.759,5.757a2.716,2.716,0,0,1-1.92,4.635,2.733,2.733,0,0,1-1.92-.8L34.4,27.972l-2.1,2.1,1.177,1.177L20.169,44.558a5.6,5.6,0,0,0-.943,6.732h-6.66ZM43.922,68.311a2.715,2.715,0,0,1-4.633-1.921,2.7,2.7,0,0,1,.794-1.92l.69-.689,3.839,3.839ZM54.134,66.39a2.714,2.714,0,0,1-4.633,1.92l-7.933-7.93a2.716,2.716,0,0,1,1.92-4.635,2.733,2.733,0,0,1,1.92.8l7.933,7.93A2.7,2.7,0,0,1,54.134,66.39Zm5.938-5.938a2.714,2.714,0,0,1-4.633,1.92l-7.933-7.93a2.716,2.716,0,0,1,1.92-4.635,2.733,2.733,0,0,1,1.92.8l7.933,7.93A2.7,2.7,0,0,1,60.072,60.451ZM63.3,57.228a2.733,2.733,0,0,1-1.92-.8L53.444,48.5a2.716,2.716,0,0,1,1.92-4.635,2.733,2.733,0,0,1,1.92.8l7.933,7.93a2.716,2.716,0,0,1-1.92,4.635ZM58.588,40.644a2.714,2.714,0,0,1,4.633-1.92l7.933,7.93a2.716,2.716,0,0,1-1.92,4.635,2.733,2.733,0,0,1-1.92-.8l-7.933-7.93A2.7,2.7,0,0,1,58.588,40.644ZM74.2,51.29a5.6,5.6,0,0,0-.943-6.734h0l-7.933-7.93a5.682,5.682,0,0,0-9.7,4.019c0,.1.022.187.028.282-.1-.006-.187-.028-.284-.028a5.69,5.69,0,0,0-5.683,5.684c0,.1.022.187.028.282-.1-.006-.187-.028-.284-.028a5.69,5.69,0,0,0-5.683,5.684c0,.1.022.187.028.282-.1-.006-.187-.028-.284-.028A5.685,5.685,0,0,0,38.752,61.6l-.769.769a2.715,2.715,0,0,1-4.633-1.921,2.7,2.7,0,0,1,.794-1.92l3.224-3.223-2.1-2.1-3.224,3.224a2.715,2.715,0,0,1-4.633-1.921,2.7,2.7,0,0,1,.794-1.92l3.224-3.223-2.1-2.1L26.107,50.5a2.715,2.715,0,0,1-4.633-1.921,2.7,2.7,0,0,1,.794-1.92L35.577,33.346l2.917,2.916a5.633,5.633,0,0,0,4.019,1.667,5.684,5.684,0,0,0,4.019-9.7l-2.175-2.173,1.485-1.485H80.856V51.29Zm15.567,2.969H83.825V21.6h5.938Z" transform="translate(-0.69 19.968)"/><path class="a" d="M27.642,25.614A10.392,10.392,0,1,0,17.25,15.222,10.4,10.4,0,0,0,27.642,25.614Zm0-17.815a7.423,7.423,0,1,1-7.423,7.423A7.431,7.431,0,0,1,27.642,7.8Z" transform="translate(18.379 4.077)"/><path class="a" d="M7.9,24.443a4.448,4.448,0,0,0,4.18-2.969h12.15v1.485a1.484,1.484,0,0,0,1.485,1.485h2.105a16.176,16.176,0,0,0,1.385,3.318l-1.571,1.571a1.483,1.483,0,0,0,0,2.1l4.454,4.454a1.483,1.483,0,0,0,2.1,0l1.571-1.571A16.259,16.259,0,0,0,39.079,35.7V37.8a1.484,1.484,0,0,0,1.485,1.485H46.5A1.484,1.484,0,0,0,47.987,37.8V35.7a16.178,16.178,0,0,0,3.337-1.369l1.551,1.551a1.483,1.483,0,0,0,2.1,0l4.019-4.019h7.081a4.454,4.454,0,1,0,0-2.969H58.993L57.877,27.78a16.177,16.177,0,0,0,1.369-3.337h2.1a1.484,1.484,0,0,0,1.485-1.485V21.474h12.15a4.454,4.454,0,1,0,0-2.969H62.832V17.02a1.484,1.484,0,0,0-1.485-1.485H59.242a16.177,16.177,0,0,0-1.385-3.318l1.571-1.571a1.483,1.483,0,0,0,0-2.1L54.974,4.094a1.483,1.483,0,0,0-2.1,0L51.3,5.665A16.19,16.19,0,0,0,47.987,4.28V2.175A1.484,1.484,0,0,0,46.5.69H40.564a1.484,1.484,0,0,0-1.485,1.485v2.1a16.178,16.178,0,0,0-3.337,1.369L34.191,4.094a1.483,1.483,0,0,0-2.1,0L28.073,8.113H20.991a4.454,4.454,0,1,0,0,2.969h7.081L29.189,12.2a16.178,16.178,0,0,0-1.369,3.337h-2.1a1.484,1.484,0,0,0-1.485,1.485V18.5H12.084A4.446,4.446,0,1,0,7.9,24.443ZM79.162,18.5a1.485,1.485,0,1,1-1.485,1.485A1.486,1.486,0,0,1,79.162,18.5ZM70.255,28.9a1.485,1.485,0,1,1-1.485,1.485A1.486,1.486,0,0,1,70.255,28.9ZM16.811,11.082A1.485,1.485,0,1,1,18.3,9.6,1.486,1.486,0,0,1,16.811,11.082ZM27.2,18.5h1.783a1.483,1.483,0,0,0,1.455-1.189A13.2,13.2,0,0,1,32.3,12.77a1.485,1.485,0,0,0-.2-1.854L30.787,9.6l2.355-2.354,1.318,1.318a1.481,1.481,0,0,0,1.854.2A13.2,13.2,0,0,1,40.859,6.9a1.486,1.486,0,0,0,1.189-1.455V3.659h2.969V5.442A1.485,1.485,0,0,0,46.207,6.9a13.171,13.171,0,0,1,4.526,1.884,1.485,1.485,0,0,0,1.854-.2l1.338-1.339L56.279,9.6l-1.338,1.338a1.483,1.483,0,0,0-.2,1.853,13.21,13.21,0,0,1,1.882,4.526A1.483,1.483,0,0,0,58.08,18.5h1.783v2.969H58.08a1.483,1.483,0,0,0-1.455,1.189,13.2,13.2,0,0,1-1.862,4.546,1.485,1.485,0,0,0,.2,1.854l1.317,1.318-2.354,2.355-1.318-1.318a1.485,1.485,0,0,0-1.854-.2,13.2,13.2,0,0,1-4.546,1.862,1.486,1.486,0,0,0-1.189,1.455v1.783H42.048V34.536a1.485,1.485,0,0,0-1.189-1.455A13.171,13.171,0,0,1,36.333,31.2a1.487,1.487,0,0,0-1.854.2l-1.338,1.339-2.355-2.355,1.338-1.338a1.483,1.483,0,0,0,.2-1.853,13.21,13.21,0,0,1-1.882-4.526,1.483,1.483,0,0,0-1.455-1.191H27.2Zm-19.3,0a1.485,1.485,0,1,1-1.485,1.485A1.486,1.486,0,0,1,7.9,18.5Z" transform="translate(2.488 -0.69)"/></g></g></svg>