<svg xmlns="http://www.w3.org/2000/svg" xmlns:xlink="http://www.w3.org/1999/xlink" width="58.48" height="58.447" viewBox="0 0 58.48 58.447"><defs><style>.a{fill:url(#a);}</style><linearGradient id="a" x1="0.5" x2="0.5" y2="1" gradientUnits="objectBoundingBox"><stop offset="0" stop-color="#5a4056"/><stop offset="1" stop-color="#959cc1"/></linearGradient></defs><g transform="translate(0 -0.143)"><path class="a" d="M52.179,401.809a6.311,6.311,0,0,0-6.062,4.588H41.683a5.393,5.393,0,0,0-10.2,0H27a5.393,5.393,0,0,0-10.2,0H12.363a6.3,6.3,0,1,0,0,3.427H16.8a5.393,5.393,0,0,0,10.2,0h4.476a5.393,5.393,0,0,0,10.2,0h4.434a6.3,6.3,0,1,0,6.062-8.014Z" transform="translate(0 -355.788)"/><path class="a" d="M121.147,63.458,102.8,52.863l-7.462,4.308,18.351,10.6Z" transform="translate(-84.445 -46.698)"/><path class="a" d="M216.48,10.473,198.986.373a1.713,1.713,0,0,0-1.713,0l-6.606,3.814,18.351,10.6Z" transform="translate(-168.889)"/><path class="a" d="M81.19,138.249l17.495,10.1v-21.19l-18.351-10.6v20.2a1.713,1.713,0,0,0,.857,1.484Z" transform="translate(-71.158 -103.123)"/><path class="a" d="M271,127.159v21.19l17.495-10.1a1.713,1.713,0,0,0,.857-1.484v-20.2l-7.462,4.308v4.091a1.713,1.713,0,0,1-3.427,0v-2.113Z" transform="translate(-240.047 -103.123)"/></g></svg>