<svg xmlns="http://www.w3.org/2000/svg" width="94.347" height="94.135" viewBox="0 0 94.347 94.135"><defs><style>.a{fill:#fff;}</style></defs><g transform="translate(0 0)"><g transform="translate(0 0)"><path class="a" d="M50.384,30.364a14.152,14.152,0,1,0,4.139,10.012A14.152,14.152,0,0,0,50.384,30.364ZM48.71,48.714a11.793,11.793,0,1,1,0-16.675,11.793,11.793,0,0,1,0,16.675Z" transform="translate(6.802 6.752)"/><path class="a" d="M93.191,30.669a4.929,4.929,0,0,0-.731.979H85.384L71.09,45.94a18.869,18.869,0,0,0-2.866-4.352l4.717-4.717a4.788,4.788,0,0,0,2.359.672,4.717,4.717,0,0,0,3.337-8.055,4.835,4.835,0,0,0-6.675,0,4.717,4.717,0,0,0-1.38,3.337,4.788,4.788,0,0,0,.66,2.359L66.527,39.9a18.48,18.48,0,0,0-5.106-3.231l6.8-6.8-4.139-4.116L69.4,20.385a4.71,4.71,0,0,0,5.7-7.406,4.835,4.835,0,0,0-6.675,0,4.717,4.717,0,0,0-1.38,3.337,4.635,4.635,0,0,0,.684,2.359l-6.981,7.076,4.163,4.163-5.967,5.979a19.069,19.069,0,0,0-10.614.248l-14.3-14.364v-5.46a4.717,4.717,0,0,0,3.337-8.055,4.835,4.835,0,0,0-6.675,0,4.717,4.717,0,0,0,0,6.675,4.93,4.93,0,0,0,.979.731v7.076L45.96,37.037A18.869,18.869,0,0,0,41.608,39.9l-4.717-4.717a4.788,4.788,0,0,0,.672-2.359,4.717,4.717,0,0,0-1.38-3.337,4.835,4.835,0,0,0-6.675,0,4.717,4.717,0,0,0,3.337,8.055,4.788,4.788,0,0,0,2.359-.66L39.921,41.6a18.48,18.48,0,0,0-3.231,5.106l-6.8-6.8L25.77,44.042,20.4,38.723a4.681,4.681,0,0,0-.731-5.7,4.835,4.835,0,0,0-6.675,0,4.717,4.717,0,0,0,3.337,8.055,4.635,4.635,0,0,0,2.359-.684l7.076,6.981,4.163-4.163,5.979,5.967A19.069,19.069,0,0,0,36.16,59.8L21.8,74.1h-5.46a4.717,4.717,0,0,0-1.38-3.337,4.835,4.835,0,0,0-6.675,0,4.72,4.72,0,1,0,6.675,6.675,4.929,4.929,0,0,0,.731-.979h7.076L37.056,62.168a18.869,18.869,0,0,0,2.866,4.352L35.2,71.236a4.835,4.835,0,0,0-5.708.708,4.717,4.717,0,1,0,8.066,3.337,4.788,4.788,0,0,0-.66-2.359l4.717-4.717a18.479,18.479,0,0,0,5.106,3.231l-6.8,6.8,4.139,4.116-5.319,5.378a4.859,4.859,0,0,0-5.684.719A4.717,4.717,0,1,0,41.1,91.792a4.635,4.635,0,0,0-.684-2.359L47.4,82.357l-4.163-4.163L49.2,72.215a18.7,18.7,0,0,0,10.614-.248l14.3,14.364v5.46a4.635,4.635,0,1,0,3.337,1.333,4.057,4.057,0,0,0-.979-.708V85.341L62.187,71.071a18.869,18.869,0,0,0,4.352-2.866l4.717,4.717a4.788,4.788,0,0,0-.672,2.359,4.717,4.717,0,1,0,8.055-3.337,4.835,4.835,0,0,0-5.708-.708l-4.717-4.717a18.479,18.479,0,0,0,3.231-5.106l6.816,6.793,4.116-4.139,5.366,5.319a4.709,4.709,0,1,0,7.406-.979,4.847,4.847,0,0,0-5.7-.7l-7.076-6.981-4.163,4.163-5.979-5.967a19.069,19.069,0,0,0-.248-10.614l14.364-14.3h5.46a4.717,4.717,0,1,0,8.055-3.337A4.835,4.835,0,0,0,93.191,30.669ZM70.1,14.654a2.352,2.352,0,1,1,0,3.326,2.359,2.359,0,0,1,0-3.326ZM32.362,9.936a2.359,2.359,0,1,1,3.326,3.326,2.352,2.352,0,1,1-3.326-3.326ZM14.673,38.027a2.359,2.359,0,1,1,3.326,0A2.359,2.359,0,0,1,14.673,38.027ZM13.281,75.765a2.359,2.359,0,1,1,.518-2.572,2.359,2.359,0,0,1-.518,2.572ZM38.046,93.455a2.359,2.359,0,1,1,.518-2.572A2.359,2.359,0,0,1,38.046,93.455Zm37.738,4.717A2.359,2.359,0,1,1,76.3,95.6,2.359,2.359,0,0,1,75.784,98.172ZM91.811,69.385a2.359,2.359,0,1,1-2.17,1.457A2.359,2.359,0,0,1,91.811,69.385ZM73.638,31.164a2.352,2.352,0,1,1,0,3.326A2.359,2.359,0,0,1,73.638,31.164ZM31.183,34.489a2.359,2.359,0,1,1,3.326,0,2.359,2.359,0,0,1-3.326,0Zm3.326,42.455a2.359,2.359,0,1,1,.518-2.572,2.359,2.359,0,0,1-.518,2.572ZM42.4,65.729a16.51,16.51,0,1,1,23.35,0A16.51,16.51,0,0,1,42.4,65.729Zm32.9,7.194a2.359,2.359,0,1,1-2.17,1.457A2.359,2.359,0,0,1,75.3,72.923Zm22.89-37.254a2.359,2.359,0,1,1,.518-2.572A2.359,2.359,0,0,1,98.191,35.669Z" transform="translate(-6.898 -6.925)"/></g></g></svg>