<svg xmlns="http://www.w3.org/2000/svg" width="20.965" height="17.034" viewBox="0 0 20.965 17.034"><defs><style>.a{fill:#fff;}</style></defs><path class="a" d="M20.965,50.017a8.961,8.961,0,0,1-2.476.679,4.274,4.274,0,0,0,1.891-2.376,8.589,8.589,0,0,1-2.725,1.04A4.3,4.3,0,0,0,10.219,52.3a4.426,4.426,0,0,0,.1.98,12.165,12.165,0,0,1-8.859-4.5A4.3,4.3,0,0,0,2.78,54.528,4.244,4.244,0,0,1,.839,54v.047a4.318,4.318,0,0,0,3.443,4.223,4.289,4.289,0,0,1-1.127.142,3.8,3.8,0,0,1-.814-.073,4.339,4.339,0,0,0,4.016,2.994,8.636,8.636,0,0,1-5.329,1.833A8.054,8.054,0,0,1,0,63.105a12.1,12.1,0,0,0,6.593,1.929A12.149,12.149,0,0,0,18.826,52.8c0-.19-.007-.373-.016-.556A8.574,8.574,0,0,0,20.965,50.017Z" transform="translate(0 -48)"/></svg>